<?xml version="1.0" encoding="UTF-8" standalone="no"?><!DOCTYPE svg PUBLIC "-//W3C//DTD SVG 1.1//EN" "http://www.w3.org/Graphics/SVG/1.1/DTD/svg11.dtd"><svg width="100%" height="100%" viewBox="0 0 732 334" version="1.1" xmlns="http://www.w3.org/2000/svg"     xml:space="preserve"     style="fill-rule:evenodd;clip-rule:evenodd;stroke-linejoin:round;stroke-miterlimit:2;"><path d="M726.032,0.266l-171.184,0l-0,58.304l50.051,0l-0,201.002l71.083,0l-0,-201.002l50.05,0l0,-58.304Zm-188.223,259.04l-71.083,0l0,-259.04l71.083,0l0,259.04Zm-83.063,0l-79.069,0l-93.979,-100.9l0,-57.772l91.05,-100.634l81.466,-0l-104.894,130.452l105.426,128.854Z" style="fill:#fff;"/><path d="M62.06,95.043c-13.577,16.507 -25.291,34.61 -34.343,54.045l236.943,110.218l-202.6,-164.263l0,0Z" style="fill:#fff;"/><path d="M264.66,259.306l-110.485,-235.079c-19.701,9.051 -37.804,20.233 -54.31,33.545l164.795,201.534Z" style="fill:#fff;"/><path d="M264.66,259.306l0.266,-259.04l-2.13,0c-21.032,0 -41.532,2.663 -61.232,7.455l63.096,251.585l-0,0Z" style="fill:#fff;"/><path d="M10.678,195.944c-5.324,20.233 -7.986,41.531 -8.253,63.362l262.235,0l-253.982,-63.362l0,-0Z" style="fill:#fff;"/><path d="M729.612,317.634c-1.071,0.885 -4.423,2.375 -7.31,2.375c-4.144,-0 -7.822,-3.213 -7.822,-7.916l16.948,0c0,-7.636 -2.561,-13.41 -10.476,-13.41c-6.705,0 -11.129,4.983 -11.129,12.014c0,7.729 3.865,12.858 12.293,12.858c3.91,0 5.82,-0.939 7.496,-1.544l0,-4.377Zm-15.132,-8.799c0.326,-3.074 2.095,-6.613 6.379,-6.613c3.771,0 5.913,2.98 5.913,6.613l-12.292,-0Zm-14.163,14.153l4.376,0l0,-23.746l-4.376,-0l-0,23.746Zm4.656,-33.989l-4.936,-0l0,4.935l4.936,0l-0,-4.935Zm-279.536,1.031l4.865,-0l-0,4.958l-4.865,0l-0,-4.958Zm10.406,-0l4.865,-0l0,4.958l-4.865,0l0,-4.958Zm13.94,32.958l4.377,0l-0,-10.802c-0,-5.959 2.561,-9.684 6.471,-9.684c0.746,0 1.63,0.093 2.422,0.419l0,-3.911c-0.931,-0.187 -1.583,-0.327 -2.887,-0.327c-2.514,0 -5.029,1.77 -6.193,4.238l-0.093,-0l0,-3.679l-4.097,-0l0,23.746l0,0Zm-6.211,-24.313l-4.377,-0l0,10.988c0,5.774 -2.234,9.779 -7.217,9.779c-3.818,-0.234 -5.028,-2.934 -5.028,-8.474l-0,-12.293l-4.377,-0l0,14.108c0,6.379 2.747,10.205 8.894,10.205c3.305,0 6.471,-1.637 7.776,-4.338l0.092,-0l0,3.771l4.237,0l-0,-23.746Zm-235.97,24.313l4.376,0l0,-10.802c0,-5.959 2.561,-9.684 6.472,-9.684c0.745,0 1.63,0.093 2.422,0.419l-0,-3.911c-0.931,-0.187 -1.584,-0.327 -2.887,-0.327c-2.515,0 -5.029,1.77 -6.193,4.238l-0.093,-0l-0,-3.679l-4.097,-0l-0,23.746l-0,0Zm486.402,-23.746l-4.051,-0l-0,3.539l-0.093,0c-1.303,-2.56 -3.631,-4.098 -7.822,-4.098c-7.171,0 -10.617,6.519 -10.617,12.619c0,6.146 3.353,11.686 10.152,11.686c3.025,0 6.099,-1.21 7.961,-3.677l0.093,-0l-0,2.327c-0,5.037 -2.747,8.157 -7.356,8.157c-3.213,-0 -5.215,-0.606 -8.568,-2.143l-0.465,4.051c3.818,1.304 6.005,1.63 8.52,1.63c8.521,0 12.245,-4.144 12.245,-11.369l0,-22.722l0.001,-0Zm-11.315,20.208c-4.097,-0 -6.61,-3.911 -6.61,-8.381c-0,-4.051 2.187,-8.847 6.61,-8.847c4.656,0 6.938,4.237 6.938,9.173c0,4.424 -2.84,8.055 -6.938,8.055Zm-39.716,-8.335c-0,6.799 4.935,12.44 12.106,12.44c7.124,0 12.06,-5.641 12.06,-12.44c-0,-7.217 -4.843,-12.432 -12.06,-12.432c-7.263,0 -12.106,5.215 -12.106,12.432Zm4.657,0c-0,-4.516 2.746,-8.893 7.449,-8.893c4.656,0 7.404,4.377 7.404,8.893c-0,4.238 -2.282,8.894 -7.404,8.894c-5.168,-0 -7.449,-4.656 -7.449,-8.894Zm-15.459,11.873l4.377,0l-0,-34.92l-4.377,-0l0,34.92Zm-30.591,-11.873c0,6.799 4.935,12.44 12.106,12.44c7.124,0 12.06,-5.641 12.06,-12.44c-0,-7.217 -4.843,-12.432 -12.06,-12.432c-7.263,0 -12.106,5.215 -12.106,12.432Zm4.657,0c0,-4.516 2.747,-8.893 7.449,-8.893c4.656,0 7.404,4.377 7.404,8.893c-0,4.238 -2.282,8.894 -7.404,8.894c-5.168,-0 -7.449,-4.656 -7.449,-8.894Zm-31.522,11.873l4.377,0l-0,-10.988c-0,-5.773 2.235,-9.778 7.217,-9.778c3.818,0.233 5.028,2.934 5.028,8.475l0,12.291l4.377,0l-0,-14.107c-0,-6.379 -2.747,-10.198 -8.893,-10.198c-3.306,0 -6.472,1.63 -7.776,4.33l-0.092,0l-0,-3.771l-4.238,-0l0,23.746Zm-28.448,0l4.376,0l0,-10.988c0,-5.773 2.236,-9.778 7.217,-9.778c3.818,0.233 5.028,2.934 5.028,8.475l0,12.291l4.377,0l0,-14.107c0,-6.379 -2.746,-10.198 -8.892,-10.198c-3.307,0 -6.053,1.444 -7.637,3.958l-0.093,0l0,-14.573l-4.376,-0l-0,34.92l-0,0Zm-5.215,-23.373c-1.257,-0.512 -3.538,-0.932 -5.308,-0.932c-7.263,0 -12.106,5.215 -12.106,12.432c0,6.799 4.936,12.44 12.106,12.44c1.583,0 3.679,-0.14 5.495,-0.985l-0.326,-3.911c-1.351,0.885 -3.213,1.35 -4.703,1.35c-5.634,-0 -7.916,-4.656 -7.916,-8.894c0,-4.516 2.748,-8.893 7.637,-8.893c1.396,0 3.072,0.326 4.749,1.024l0.372,-3.631Zm-23.141,18.019c-1.071,0.885 -4.423,2.375 -7.31,2.375c-4.145,-0 -7.822,-3.213 -7.822,-7.916l16.948,0c-0,-7.636 -2.562,-13.41 -10.476,-13.41c-6.705,0 -11.129,4.983 -11.129,12.014c-0,7.729 3.865,12.858 12.292,12.858c3.911,0 5.821,-0.939 7.497,-1.544l-0,-4.377Zm-15.132,-8.799c0.326,-3.074 2.095,-6.613 6.379,-6.613c3.771,0 5.912,2.98 5.912,6.613l-12.291,-0Zm-18.625,14.153l4.656,0l-0,-28.402l10.104,0l-0,-4.097l-24.864,-0l-0,4.097l10.104,0l-0,28.402Zm-77.476,0l4.376,0l0,-20.207l6.286,0l0,-3.539l-6.286,-0l0,-2.56c0,-3.214 0.465,-5.634 4.236,-5.634c0.746,-0 1.584,0.092 2.097,0.279l0.185,-3.538c-0.884,-0.141 -1.815,-0.28 -2.933,-0.28c-6.472,0 -7.961,3.772 -7.961,9.545l-0,2.188l-5.589,-0l0,3.539l5.589,0l-0,20.207Zm-20.099,-23.746l-6.286,-0l-0,-6.89l-4.377,1.396l0,5.494l-5.355,-0l0,3.539l5.355,0l0,13.876c0,4.749 2.793,6.898 7.31,6.898c1.397,0 2.747,-0.372 3.725,-0.66l0,-3.725c-0.651,0.42 -1.63,0.839 -2.981,0.839c-2.001,-0 -3.677,-1.49 -3.677,-4.237l-0,-12.991l6.286,0l-0,-3.539Zm-20.069,-0l-4.376,-0l-0,10.988c-0,5.774 -2.234,9.779 -7.217,9.779c-3.818,-0.234 -5.028,-2.934 -5.028,-8.474l-0,-12.293l-4.377,-0l-0,14.108c-0,6.379 2.747,10.205 8.893,10.205c3.306,0 6.472,-1.637 7.776,-4.338l0.093,-0l0,3.771l4.236,0l0,-23.746Zm-26.492,-0l-6.286,-0l-0,-6.89l-4.377,1.396l0,5.494l-5.355,-0l-0,3.539l5.355,0l0,13.876c0,4.749 2.793,6.898 7.31,6.898c1.397,0 2.747,-0.372 3.725,-0.66l-0,-3.725c-0.652,0.42 -1.63,0.839 -2.981,0.839c-2.001,-0 -3.677,-1.49 -3.677,-4.237l-0,-12.991l6.286,0l-0,-3.539Zm-25.004,23.746l4.376,0l0,-23.746l-4.376,-0l-0,23.746Zm4.656,-33.989l-4.936,-0l0,4.935l4.936,0l-0,-4.935Zm-10.709,10.243l-6.286,-0l-0,-6.89l-4.377,1.396l0,5.494l-5.355,-0l-0,3.539l5.355,0l0,13.876c0,4.749 2.793,6.898 7.31,6.898c1.397,0 2.747,-0.372 3.725,-0.66l-0,-3.725c-0.652,0.42 -1.63,0.839 -2.981,0.839c-2.001,-0 -3.677,-1.49 -3.677,-4.237l-0,-12.991l6.286,0l-0,-3.539Zm-32.734,23.002c2.003,1.078 4.284,1.311 6.518,1.311c4.238,0 8.289,-2.336 8.289,-7.411c-0,-7.589 -10.29,-6.193 -10.29,-11.035c0,-1.955 1.955,-2.887 4.19,-2.887c1.025,0 3.632,0.606 4.61,1.211l0.372,-3.818c-1.723,-0.512 -3.398,-0.932 -5.448,-0.932c-4.702,0 -8.381,2.376 -8.381,7.311c0,6.658 10.291,6.285 10.291,10.615c-0,2.561 -2.468,3.4 -4.47,3.4c-1.258,-0 -3.725,-0.559 -5.448,-1.677l-0.233,3.912Zm-26.446,0.744l4.377,0l-0,-10.988c-0,-5.773 2.235,-9.778 7.217,-9.778c3.817,0.233 5.028,2.934 5.028,8.475l-0,12.291l4.377,0l-0,-14.107c-0,-6.379 -2.747,-10.198 -8.893,-10.198c-3.306,0 -6.473,1.63 -7.776,4.33l-0.092,0l-0,-3.771l-4.238,-0l0,23.746l0,0Zm-12.526,0l4.656,0l0,-32.499l-4.656,-0l0,32.499Zm-38.577,-5.354c-1.072,0.885 -4.423,2.375 -7.31,2.375c-4.145,-0 -7.822,-3.213 -7.822,-7.916l16.947,0c0,-7.636 -2.561,-13.41 -10.476,-13.41c-6.704,0 -11.128,4.983 -11.128,12.014c-0,7.729 3.865,12.858 12.292,12.858c3.911,0 5.82,-0.939 7.497,-1.544l-0,-4.377Zm-15.132,-8.799c0.325,-3.074 2.095,-6.613 6.378,-6.613c3.772,0 5.913,2.98 5.913,6.613l-12.291,-0Zm-31.522,14.153l4.376,0l0,-10.988c0,-5.773 2.236,-9.778 7.217,-9.778c3.818,0.233 5.029,2.934 5.029,8.475l-0,12.291l4.376,0l0,-14.107c0,-6.379 -2.746,-10.198 -8.892,-10.198c-3.307,0 -6.053,1.444 -7.637,3.958l-0.093,0l0,-14.573l-4.376,-0l-0,34.92Zm-7.45,-23.746l-4.377,-0l0,10.988c0,5.774 -2.234,9.779 -7.217,9.779c-3.818,-0.234 -5.028,-2.934 -5.028,-8.474l-0,-12.293l-4.377,-0l0,14.108c0,6.379 2.747,10.205 8.894,10.205c3.305,0 6.471,-1.637 7.775,-4.338l0.093,-0l0,3.771l4.237,0l-0,-23.746Zm-39.112,23.746l4.377,0l0,-10.802c0,-5.959 2.561,-9.684 6.472,-9.684c0.745,0 1.63,0.093 2.422,0.419l-0,-3.911c-0.931,-0.187 -1.584,-0.327 -2.887,-0.327c-2.515,0 -5.03,1.77 -6.194,4.238l-0.092,-0l-0,-3.679l-4.098,-0l0,23.746l0,0Zm-20.114,-0.744c2.002,1.078 4.283,1.311 6.518,1.311c4.237,0 8.288,-2.336 8.288,-7.411c-0,-7.589 -10.29,-6.193 -10.29,-11.035c0,-1.955 1.955,-2.887 4.19,-2.887c1.025,0 3.633,0.606 4.61,1.211l0.372,-3.818c-1.723,-0.512 -3.398,-0.932 -5.448,-0.932c-4.702,0 -8.381,2.376 -8.381,7.311c0,6.658 10.291,6.285 10.291,10.615c-0,2.561 -2.467,3.4 -4.47,3.4c-1.257,-0 -3.725,-0.559 -5.447,-1.677l-0.233,3.912Zm-10.384,0.744l4.377,0l-0,-34.92l-4.377,-0l0,34.92Zm-18.671,0l4.377,0l-0,-10.802c-0,-5.959 2.56,-9.684 6.471,-9.684c0.746,0 1.63,0.093 2.422,0.419l-0,-3.911c-0.931,-0.187 -1.584,-0.327 -2.887,-0.327c-2.514,0 -5.029,1.77 -6.193,4.238l-0.093,-0l-0,-3.679l-4.097,-0l-0,23.746Zm-24.538,-18.345c1.769,-1.489 4.423,-2.421 6.89,-2.421c4.378,0 5.868,2.096 5.868,6.193c-1.723,-0.093 -2.934,-0.093 -4.656,-0.093c-4.517,0 -11.036,1.862 -11.036,7.822c-0,5.169 3.586,7.411 8.708,7.411c4.003,0 6.331,-2.196 7.356,-3.639l0.093,-0l-0,3.072l4.097,0c-0.093,-0.698 -0.186,-1.955 -0.186,-4.656l0,-9.824c0,-6.472 -2.747,-9.825 -9.545,-9.825c-3.027,0 -5.634,0.932 -7.822,2.236l0.233,3.724l-0,0Zm12.758,9.127c-0,3.538 -2.282,6.239 -6.612,6.239c-2.002,-0 -4.423,-1.35 -4.423,-3.865c-0,-4.191 5.866,-4.563 8.241,-4.563c0.931,0 1.862,0.093 2.794,0.093l-0,2.096l-0,-0Zm-44.513,9.218l4.656,0l0,-15.924l14.48,15.924l6.799,0l-16.483,-17.134l15.272,-15.365l-6.193,-0l-13.875,14.295l0,-14.295l-4.656,-0l0,32.499Z" style="fill:#fff;fill-rule:nonzero;"/></svg>