<?xml version="1.0" encoding="UTF-8" standalone="no"?><!DOCTYPE svg PUBLIC "-//W3C//DTD SVG 1.1//EN" "http://www.w3.org/Graphics/SVG/1.1/DTD/svg11.dtd">
<svg width="100%" height="100%" viewBox="0 0 1348 335" version="1.1" xmlns="http://www.w3.org/2000/svg"
     xml:space="preserve" xmlns:serif="http://www.serif.com/"
     style="fill-rule:evenodd;clip-rule:evenodd;stroke-linejoin:round;stroke-miterlimit:1.41421;"><g id="Underline"><rect x="0" y="238.635" width="1347.33" height="12.357" style="fill:#fff;"/></g><g id="_7.3" serif:id="7.3"><g><g><g><g><g><path d="M0.603,9.56l8.061,-0c0.157,0.084 0.238,0.168 0.238,0.252l0,81.189l67.338,0l-0,-81.189c-0,-0.168 0.078,-0.252 0.238,-0.252l7.942,-0c0.16,0.084 0.238,0.168 0.238,0.252l-0,180.415c-0,0.171 -0.078,0.255 -0.238,0.255l-7.942,-0c-0.16,-0 -0.238,-0.084 -0.238,-0.255l-0,-90.08l-67.338,-0l0,90.08c0,0.171 -0.081,0.255 -0.238,0.255l-8.061,-0c-0.16,-0 -0.238,-0.084 -0.238,-0.255l-0,-180.415c-0,-0.168 0.078,-0.252 0.238,-0.252Z" style="fill:#fff;fill-rule:nonzero;"/><path d="M118.919,9.56l83.939,-0c0.157,-0 0.235,0.084 0.235,0.252l0,8.642c0,0.168 -0.078,0.252 -0.235,0.252l-75.64,-0l0,72.295l33.434,0c0.157,0 0.235,0.084 0.235,0.252l0,8.642c0,0.084 -0.078,0.124 -0.235,0.124l-33.434,0l0,81.314l75.64,-0c0.157,-0 0.235,0.087 0.235,0.255l0,8.639c0,0.171 -0.078,0.255 -0.235,0.255l-83.939,-0c-0.157,-0 -0.235,-0.084 -0.235,-0.255l0,-180.415c0,-0.168 0.078,-0.252 0.235,-0.252Z" style="fill:#fff;fill-rule:nonzero;"/><path d="M279.206,5.241l31.062,135.818l11.144,49.295l-0.238,0.128l-8.299,-0c-0.235,-0 -1.028,-3.345 -2.369,-10.036c-10.91,-47.351 -17.309,-75.258 -19.209,-83.728c-0.63,-2.627 -4.66,-20.287 -12.091,-52.98l-29.165,128.194c-0.868,3.389 -2.291,9.528 -4.269,18.422l-0.235,0.128l-8.299,-0l-0.238,-0.128c16.281,-71.486 27.783,-122.098 34.5,-151.825c4.741,-20.67 7.311,-31.763 7.706,-33.288Z" style="fill:#fff;fill-rule:nonzero;"/><path d="M355.554,9.688l83.82,-0c0.157,-0 0.238,0.084 0.238,0.251l0,8.259c0,0.168 -0.081,0.256 -0.238,0.256l-37.699,-0l-0,171.773c-0,0.171 -0.082,0.255 -0.238,0.255l-7.945,-0c-0.157,-0 -0.235,-0.084 -0.235,-0.255l-0,-171.773l-37.703,-0c-0.156,-0 -0.235,-0.088 -0.235,-0.256l0,-8.259c0,-0.167 0.079,-0.251 0.235,-0.251Z" style="fill:#fff;fill-rule:nonzero;"/></g></g><g><g><path d="M711.923,12.482l56.193,-0c8.616,-0 15.928,4.235 21.932,12.706c3.084,5.249 4.626,10.67 4.626,16.263l0,35.954c0,8.894 -3.754,16.558 -11.264,22.997c-5.215,3.728 -10.433,5.589 -15.648,5.589l-1.423,-0.124l-46.236,-0l-0,84.36c-0,0.171 -0.078,0.255 -0.238,0.255l-7.942,-0c-0.16,-0 -0.238,-0.084 -0.238,-0.255l-0,-177.493c-0,-0.168 0.078,-0.252 0.238,-0.252Zm8.18,9.021l-0,75.594l45.168,0c0.554,0 1.344,-0.04 2.372,-0.124l0.238,0.124c4.504,0 8.732,-1.861 12.684,-5.589c3.795,-4.235 5.691,-8.85 5.691,-13.848l0,-36.848c0,-5.756 -2.41,-10.841 -7.233,-15.245c-3.476,-2.71 -6.992,-4.064 -10.549,-4.064l-48.371,0Z" style="fill:#fff;fill-rule:nonzero;"/><path d="M857.27,9.812l29.758,-0c9.484,-0 17.268,4.658 23.355,13.975c2.607,4.998 3.911,9.996 3.911,14.993l0,122.733c0,8.894 -3.595,16.562 -10.787,22.997c-5.059,3.98 -10.471,5.972 -16.241,5.972l-30.234,-0c-8.929,-0 -16.438,-4.319 -22.524,-12.958c-3.003,-5.169 -4.504,-10.419 -4.504,-15.756l0,-122.988c0,-9.317 3.911,-17.236 11.737,-23.759c4.977,-3.473 10.154,-5.209 15.529,-5.209Zm-18.967,28.717l0,0.634l-0.238,0.38l-0,120.193c-0,9.657 3.952,16.475 11.856,20.455c2.291,1.017 4.663,1.525 7.111,1.525l27.981,-0c6.638,-0 11.658,-1.905 15.056,-5.717c4.03,-3.896 6.045,-9.36 6.045,-16.39l0,-118.921c0,-10.079 -4.149,-17.025 -12.448,-20.837c-2.053,-0.846 -5.137,-1.27 -9.246,-1.27l-24.896,0c-6.087,0 -10.672,1.438 -13.752,4.32c-4.98,4.403 -7.469,9.612 -7.469,15.628Z" style="fill:#fff;fill-rule:nonzero;"/><path d="M954.012,9.177l8.653,0c0.316,0 1.188,3.517 2.61,10.546c19.836,86.312 30.745,134.126 32.72,143.443l0.119,-0l30.707,-134.804c1.42,-6.184 2.172,-9.656 2.25,-10.419l0.119,0c0.239,0 1.818,6.734 4.742,20.203c18.337,79.872 27.862,121.547 28.573,125.02l0.119,-0l30.585,-134.549l4.507,-19.44l8.891,0l0.238,0.128c-22.922,100.626 -34.778,152.591 -35.568,155.893c0,0.255 -2.883,13.045 -8.653,38.369l-0.119,0c-0.633,-2.539 -11.539,-50.313 -32.722,-143.315c-0.317,-1.185 -0.474,-1.948 -0.474,-2.287l-0.119,0l-28.689,126.8l-4.387,18.802l-0.119,0l-32.485,-142.552c0,-0.168 -3.911,-17.405 -11.737,-51.71l0.239,-0.128Z" style="fill:#fff;fill-rule:nonzero;"/><path d="M1144.65,9.56l83.935,-0c0.157,-0 0.239,0.084 0.239,0.252l-0,8.642c-0,0.168 -0.082,0.252 -0.239,0.252l-75.636,-0l-0,72.295l33.43,0c0.16,0 0.239,0.084 0.239,0.252l-0,8.642c-0,0.084 -0.079,0.124 -0.239,0.124l-33.43,0l-0,81.314l75.636,-0c0.157,-0 0.239,0.087 0.239,0.255l-0,8.639c-0,0.171 -0.082,0.255 -0.239,0.255l-83.935,-0c-0.16,-0 -0.239,-0.084 -0.239,-0.255l0,-180.415c0,-0.168 0.079,-0.252 0.239,-0.252Z" style="fill:#fff;fill-rule:nonzero;"/><path d="M1262.96,9.812l57.027,-0c8.772,-0 16.199,4.322 22.286,12.961c3.162,5.337 4.742,10.842 4.742,16.518l-0,36.462c-0,9.065 -3.793,16.857 -11.38,23.379c-5.375,3.725 -10.709,5.589 -16.006,5.589l-1.423,-0.127l-22.881,-0l51.574,85.633l-0,0.255l-9.841,-0c-0.395,-0.339 -4.783,-7.665 -13.16,-21.979c-1.423,-2.12 -14.188,-23.42 -38.295,-63.909l-14.344,-0l-0,85.633c-0,0.171 -0.079,0.255 -0.235,0.255l-8.064,-0c-0.157,-0 -0.235,-0.084 -0.235,-0.255l-0,-180.16c-0,-0.168 0.078,-0.255 0.235,-0.255Zm8.299,9.149l-0,76.739l45.763,-0c0.633,-0 1.46,-0.04 2.488,-0.128l0.238,0.128c4.586,-0 8.851,-1.904 12.803,-5.717c3.952,-4.235 5.93,-8.893 5.93,-13.975l-0,-37.479c-0,-5.848 -2.451,-10.97 -7.353,-15.376c-3.635,-2.795 -7.189,-4.192 -10.668,-4.192l-49.201,-0Z" style="fill:#fff;fill-rule:nonzero;"/></g></g><g><g><path d="M650.712,132.808l-13.719,12.032l-9.225,-9.395l5.309,-4.406l8.681,-7.638l8.954,9.407Zm-114.175,-53.152c12.315,13.311 30.505,32.695 54.569,58.141c24.064,25.446 41.416,43.848 52.045,55.207l-17.624,0l-20.713,-21.142c-8.573,7.043 -16.504,12.671 -23.782,16.884c-7.278,4.201 -14.926,6.313 -22.943,6.313c-10.825,-0 -20.714,-2.26 -29.667,-6.758c-8.954,-4.498 -16.036,-10.674 -21.269,-18.494c-5.222,-7.831 -7.833,-16.348 -7.833,-25.549c0,-11.747 2.992,-21.29 8.954,-28.631c5.972,-7.34 14.556,-13.847 25.75,-19.532l-5.32,-5.571c-4.667,-4.898 -8.811,-10.868 -12.456,-17.912c-3.633,-7.055 -5.45,-15.08 -5.45,-24.088c0.185,-6.461 1.49,-12.626 3.916,-18.493c2.426,-5.879 5.875,-11.062 10.357,-15.56c4.471,-4.509 9.606,-7.934 15.383,-10.286c5.787,-2.34 11.847,-3.516 18.189,-3.516c6.343,0 12.457,1.176 18.331,3.516c5.875,2.352 11.053,5.777 15.535,10.286c4.472,4.498 7.92,9.681 10.346,15.56c2.426,5.867 3.645,12.032 3.645,18.493c-0,9.601 -3.917,18.7 -11.76,27.307c-3.536,3.916 -7.55,7.546 -12.032,10.868l-9.509,-9.692c6.528,-4.304 11.608,-8.95 15.253,-13.939c3.633,-5 5.45,-9.84 5.45,-14.544c-0,-4.497 -0.881,-8.904 -2.654,-13.208c-1.774,-4.304 -4.243,-8.025 -7.42,-11.164c-6.897,-6.656 -15.296,-9.978 -25.185,-9.978c-9.693,0 -18.004,3.322 -24.902,9.978c-6.527,6.267 -9.976,14.395 -10.356,24.372c-0,6.462 1.403,12.432 4.199,17.912c2.796,5.491 5.788,9.886 8.953,13.22Zm21.552,101.887c5.972,-0 12.032,-1.759 18.189,-5.286c6.158,-3.516 12.685,-8.117 19.582,-13.79l-52.328,-56.384c-10.998,5.286 -19.027,10.663 -24.064,16.154c-5.037,5.48 -7.55,12.82 -7.55,22.021c0,6.85 2.046,13.117 6.158,18.791c4.101,5.673 9.693,10.183 16.786,13.505c7.082,3.333 14.828,4.989 23.227,4.989Z" style="fill:#fff;fill-rule:nonzero;stroke:#fff;stroke-width:1.34px;"/></g></g></g></g></g><g><path d="M346.194,333.206l3.259,-0l-0,-47.075l-3.259,0l-0,21.872l-27.81,0l-0,-21.872l-3.332,0l0,47.075l3.332,-0l-0,-21.872l27.81,0l-0,21.872Z" style="fill:#fff;fill-rule:nonzero;"/><path d="M417.24,333.206l0,-3.404l-27.231,0l0,-18.468l21.22,0l0,-3.331l-21.22,0l0,-18.54l27.231,-0l0,-3.332l-30.49,0l0,47.075l30.49,-0Z" style="fill:#fff;fill-rule:nonzero;"/><rect x="455.262" y="286.131" width="3.259" height="47.075" style="fill:#fff;"/><path d="M527.684,333.206l0,-3.259l-24.479,-0l22.741,-43.816l-29.91,0l-0,3.332l24.478,-0l-22.813,43.743l29.983,-0Z" style="fill:#fff;fill-rule:nonzero;"/><path d="M581.856,333.713c2.462,-0 4.78,-0.471 6.952,-1.412c2.173,-0.942 4.105,-2.282 5.794,-4.02c1.69,-1.641 2.982,-3.573 3.875,-5.794c0.893,-2.221 1.34,-4.562 1.34,-7.025l-0,-29.331l-3.259,0l-0,29.331c-0,2.028 -0.375,3.96 -1.123,5.794c-0.748,1.835 -1.798,3.428 -3.151,4.78c-1.399,1.4 -2.993,2.475 -4.779,3.223c-1.787,0.748 -3.67,1.122 -5.649,1.122c-1.931,0 -3.79,-0.374 -5.576,-1.122c-1.787,-0.748 -3.381,-1.823 -4.78,-3.223c-1.353,-1.352 -2.402,-2.945 -3.151,-4.78c-0.748,-1.834 -1.123,-3.766 -1.123,-5.794l0,-29.331l-3.259,0l0,29.331c0,2.463 0.447,4.804 1.34,7.025c0.893,2.221 2.185,4.153 3.875,5.794c1.69,1.738 3.633,3.078 5.83,4.02c2.197,0.941 4.478,1.412 6.844,1.412Z" style="fill:#fff;fill-rule:nonzero;"/><path d="M673.037,334.002l-0,-47.871l-3.263,0l0,38.384l-32.587,-38.963l-0,47.654l3.259,-0l-0,-38.239l32.591,39.035Z" style="fill:#fff;fill-rule:nonzero;"/><path d="M748.064,309.813l-18.899,0l-0,3.26l15.495,-0l-0,16.874l-13.612,-0c-3.673,-0 -7.077,-0.93 -10.212,-2.789c-3.141,-1.858 -5.627,-4.357 -7.463,-7.495c-1.832,-3.138 -2.75,-6.566 -2.75,-10.284c0,-3.718 0.918,-7.134 2.75,-10.248c1.836,-3.114 4.322,-5.588 7.463,-7.423c3.135,-1.835 6.539,-2.752 10.212,-2.752c2.797,-0 5.499,0.567 8.108,1.702c2.608,1.134 4.877,2.74 6.808,4.816l2.392,-2.245c-2.223,-2.414 -4.84,-4.297 -7.859,-5.649c-3.018,-1.352 -6.167,-2.028 -9.449,-2.028c-4.299,0 -8.258,1.074 -11.879,3.223c-3.621,2.148 -6.493,5.045 -8.616,8.69c-2.128,3.646 -3.188,7.617 -3.188,11.914c0,4.345 1.06,8.341 3.188,11.986c2.123,3.645 4.995,6.53 8.616,8.654c3.621,2.125 7.58,3.187 11.879,3.187l17.016,-0l-0,-23.393Z" style="fill:#fff;fill-rule:nonzero;"/><path d="M811.07,310.393c2.223,1.255 3.95,2.788 5.179,4.599c1.234,1.81 1.846,3.754 1.846,5.829c-0,1.787 -0.433,3.489 -1.3,5.107c-0.871,1.617 -2.128,3.029 -3.766,4.236c-3.381,2.414 -7.317,3.621 -11.804,3.621c-2.222,0 -4.346,-0.314 -6.375,-0.941c-2.029,-0.628 -3.837,-1.521 -5.433,-2.68c-2.75,-2.028 -4.417,-4.514 -4.996,-7.459l3.112,-1.739c0.146,2.656 1.451,4.829 3.913,6.519c1.257,0.965 2.726,1.701 4.416,2.208c1.691,0.507 3.48,0.761 5.363,0.761c3.861,-0 7.119,-0.99 9.775,-2.969c2.561,-1.884 3.837,-4.105 3.837,-6.664c-0,-1.496 -0.471,-2.896 -1.413,-4.2c-0.941,-1.304 -2.255,-2.414 -3.945,-3.331c-1.592,-0.821 -4.44,-1.473 -8.546,-1.956c-0.339,-0.048 -1.558,-0.241 -3.658,-0.579c-2.1,-0.338 -3.899,-0.869 -5.396,-1.593c-2.363,-1.159 -4.223,-2.692 -5.574,-4.599c-1.352,-1.907 -2.03,-3.971 -2.03,-6.192c0,-1.786 0.448,-3.464 1.342,-5.034c0.89,-1.569 2.161,-2.957 3.8,-4.164c1.596,-1.159 3.404,-2.052 5.433,-2.68c2.029,-0.627 4.153,-0.941 6.375,-0.941c4.487,0 8.423,1.207 11.804,3.621c2.801,2.125 4.44,4.587 4.925,7.387l-3.117,1.738c-0.047,-1.207 -0.396,-2.366 -1.05,-3.476c-0.65,-1.11 -1.582,-2.124 -2.787,-3.042c-1.305,-0.965 -2.802,-1.701 -4.492,-2.208c-1.69,-0.508 -3.451,-0.761 -5.283,-0.761c-1.836,0 -3.611,0.253 -5.325,0.761c-1.714,0.507 -3.197,1.243 -4.454,2.208c-1.257,0.918 -2.222,1.944 -2.896,3.078c-0.678,1.135 -1.017,2.306 -1.017,3.513c0,1.497 0.556,2.981 1.667,4.454c1.111,1.472 2.486,2.619 4.129,3.44c1.013,0.482 2.138,0.833 3.367,1.05c1.233,0.217 2.811,0.447 4.746,0.688c0.334,0.048 1.182,0.169 2.533,0.362c1.351,0.193 2.655,0.459 3.912,0.797c1.253,0.337 2.317,0.748 3.183,1.231Z" style="fill:#fff;fill-rule:nonzero;"/><path d="M879.293,308.437c2.223,0.966 4.116,2.475 5.688,4.527c1.568,2.052 2.35,4.381 2.35,6.989c-0,1.69 -0.372,3.343 -1.121,4.96c-0.749,1.618 -1.822,3.054 -3.221,4.31c-1.45,1.255 -3.149,2.233 -5.108,2.933c-1.954,0.7 -4.016,1.05 -6.191,1.05l-17.308,-0l0.07,-47.075l13.471,0c4.393,0 7.896,1.231 10.504,3.694c1.205,1.111 2.133,2.39 2.787,3.839c0.65,1.448 0.975,2.945 0.975,4.489c0,1.932 -0.443,3.694 -1.337,5.287c-0.895,1.594 -1.992,2.825 -3.296,3.694l-0.65,0.435c0.914,0.289 1.714,0.579 2.387,0.868Zm-21.582,-1.81l10.066,-0c1.304,-0 2.392,-0.073 3.263,-0.217c0.866,-0.145 1.737,-0.387 2.603,-0.725c1.258,-0.531 2.454,-1.448 3.588,-2.752c1.135,-1.303 1.7,-2.896 1.7,-4.78c-0,-1.496 -0.424,-2.908 -1.267,-4.236c-0.842,-1.328 -2.1,-2.402 -3.766,-3.223c-1.667,-0.821 -3.659,-1.231 -5.975,-1.231l-10.212,-0l-0,17.164Zm13.979,23.32c2.462,-0 4.637,-0.483 6.516,-1.449c1.883,-0.965 3.333,-2.208 4.346,-3.73c1.017,-1.52 1.52,-3.125 1.52,-4.815c0,-1.884 -0.588,-3.585 -1.77,-5.106c-1.186,-1.521 -2.599,-2.644 -4.237,-3.368c-2.322,-1.014 -5.241,-1.521 -8.767,-1.521l-11.587,0l-0,19.989l13.979,-0Z" style="fill:#fff;fill-rule:nonzero;"/><path d="M928.25,321.256l-5.574,11.95l-3.621,-0l22.162,-47.654l20.928,47.654l-3.55,-0l-5.287,-11.95l-25.058,0Zm12.821,-27.665l-11.3,24.406l22.091,-0l-10.791,-24.406Z" style="fill:#fff;fill-rule:nonzero;"/><path d="M1014.36,333.713c2.463,-0 4.779,-0.471 6.955,-1.412c2.17,-0.942 4.105,-2.282 5.791,-4.02c1.69,-1.641 2.985,-3.573 3.875,-5.794c0.894,-2.221 1.342,-4.562 1.342,-7.025l-0,-29.331l-3.259,0l0,29.331c0,2.028 -0.376,3.96 -1.125,5.794c-0.748,1.835 -1.798,3.428 -3.15,4.78c-1.398,1.4 -2.994,2.475 -4.779,3.223c-1.784,0.748 -3.667,1.122 -5.65,1.122c-1.93,0 -3.79,-0.374 -5.574,-1.122c-1.789,-0.748 -3.381,-1.823 -4.779,-3.223c-1.356,-1.352 -2.406,-2.945 -3.15,-4.78c-0.749,-1.834 -1.125,-3.766 -1.125,-5.794l-0,-29.331l-3.258,0l-0,29.331c-0,2.463 0.447,4.804 1.341,7.025c0.89,2.221 2.185,4.153 3.871,5.794c1.69,1.738 3.635,3.078 5.833,4.02c2.194,0.941 4.478,1.412 6.841,1.412Z" style="fill:#fff;fill-rule:nonzero;"/></g></g></svg>
