<?xml version="1.0" encoding="UTF-8" standalone="no"?><!DOCTYPE svg PUBLIC "-//W3C//DTD SVG 1.1//EN" "http://www.w3.org/Graphics/SVG/1.1/DTD/svg11.dtd">
<svg width="100%" height="100%" viewBox="0 0 3067 334" version="1.1" xmlns="http://www.w3.org/2000/svg"
     xml:space="preserve"
     style="fill-rule:evenodd;clip-rule:evenodd;stroke-linejoin:round;stroke-miterlimit:2;"><path d="M231.308,293.607l-34.164,0l-150.211,-174.57l-0,174.57l-46.933,0l0,-254.404l34.208,0l150.211,174.309l-0,-174.309l46.889,0l0,254.404Z" style="fill:#fff;fill-rule:nonzero;"/><path d="M465.972,83.042l-0,61.444l130.731,-0l0,44.013l-130.731,-0l-0,61.008l157.836,0l0,44.013l-204.813,0l0,-254.317l204.813,0l0,43.577l-157.836,0.262Z" style="fill:#fff;fill-rule:nonzero;"/><path d="M1164.69,39.203l-80.748,254.404l-49.46,0l-63.275,-186.598l-63.666,186.598l-49.46,0l-80.749,-254.404l46.933,0l59.265,186.249l63.274,-186.249l48.763,0l63.361,186.424l58.83,-186.424l46.932,0Z" style="fill:#fff;fill-rule:nonzero;"/><path d="M1548.08,220.877c0.048,39.785 -32.597,72.587 -72.382,72.73l-153.871,0l0,-254.404l146.986,0c0.015,0 0.029,0 0.044,0c37.867,0 69.027,31.16 69.027,69.027c-0,0.087 -0.001,0.174 -0.001,0.261c0,26.539 -19.61,44.754 -30.155,51.29c13.814,6.537 40.352,26.539 40.352,61.096Zm-88.723,-138.925l-92.035,0l-0,60.006l92.035,0c0.381,0.015 0.762,0.022 1.143,0.022c16.472,0 30.025,-13.554 30.025,-30.025c0,-16.471 -13.553,-30.024 -30.025,-30.024c-0.381,-0 -0.762,0.007 -1.143,0.021Zm41.79,135.09c0.001,-0.073 0.001,-0.146 0.001,-0.22c0,-18.551 -15.265,-33.816 -33.816,-33.816c-0.116,0 -0.233,0.001 -0.349,0.002l-99.661,0l-0,68.068l99.661,-0c18.742,-0 34.164,-15.423 34.164,-34.165c0,-0.014 0,-0.029 0,-0.043l0,0.174Z" style="fill:#fff;fill-rule:nonzero;"/><path d="M2324.11,293.607l-55.997,0l-71.292,-92.384l-70.944,92.384l-55.953,0l98.92,-128.378l-97.133,-126.026l55.996,0l69.114,89.464l69.462,-89.464l55.648,0l-97.09,126.026l99.269,128.378Z" style="fill:#fff;fill-rule:nonzero;"/><path d="M2534.72,83.042l-0,61.444l130.732,-0l-0,44.013l-130.732,-0l-0,61.008l157.88,0l0,44.013l-204.813,0l0,-254.317l204.813,0l0,43.577l-157.88,0.262Z" style="fill:#fff;fill-rule:nonzero;"/><path d="M3066.88,224.145c0,56.389 -53.12,74.953 -108.028,74.953c-36.577,0.326 -72.555,-9.365 -104.019,-28.02l23.619,-37.477c25.842,14.207 54.951,23.271 82.231,23.271c34.861,-0 57.478,-9.064 57.478,-30.156c0,-23.314 -30.94,-32.029 -64.756,-42.575c-44.013,-13.465 -93.473,-28.717 -93.473,-80.008c-0.299,-19.789 9.246,-38.487 25.449,-49.852c18.172,-13.073 45.103,-20.002 78.439,-20.002c34.513,-0 64.712,8.715 98.18,28.02l-22.922,36.387c-26.146,-14.555 -50.55,-22.573 -77.437,-22.573c-35.646,0 -52.772,10.894 -52.772,26.146c0,24.012 31.637,32.378 66.586,43.273c42.706,13.509 91.425,30.242 91.425,78.613Z" style="fill:#fff;fill-rule:nonzero;"/><path d="M1804.93,3.818l-119.62,69.027c-8.82,5.133 -14.271,14.59 -14.293,24.795l-0,129.991c-0.012,15.199 8.133,29.29 21.309,36.867l112.604,65.017c8.836,5.091 19.75,5.091 28.586,-0l119.62,-68.983c4.333,-2.539 7.937,-6.158 10.458,-10.502c2.519,-4.342 3.842,-9.274 3.835,-14.293l0,-138.097c-0.022,-10.205 -5.473,-19.662 -14.293,-24.795l-105.457,-60.747l-14.163,-8.28c-8.836,-5.091 -19.75,-5.091 -28.586,0Zm-105.414,102.015c0.004,-4.985 2.665,-9.607 6.972,-12.115l98.311,-56.65l7.19,-4.14c4.312,-2.479 9.633,-2.479 13.945,0l7.364,4.358l98.18,56.65c4.307,2.487 6.97,7.097 6.972,12.071l0,88.985c-0.003,7.648 -6.297,13.939 -13.944,13.939c-2.448,0 -4.853,-0.644 -6.973,-1.868l-83.886,-48.589c-8.436,-4.58 -18.556,-4.919 -27.279,-0.915l-1.221,0.61l-84.539,48.894c-2.153,1.268 -4.606,1.938 -7.104,1.938c-7.673,-0 -13.988,-6.315 -13.988,-13.989c-0,-0.021 0,-0.042 0,-0.064l0,-89.115Z" style="fill:#fff;fill-rule:nonzero;"/></svg>
