<?xml version="1.0" encoding="UTF-8" standalone="no"?><!DOCTYPE svg PUBLIC "-//W3C//DTD SVG 1.1//EN" "http://www.w3.org/Graphics/SVG/1.1/DTD/svg11.dtd">
<svg width="100%" height="100%" viewBox="0 0 1616 334" version="1.1" xmlns="http://www.w3.org/2000/svg"
     xml:space="preserve"
     style="fill-rule:evenodd;clip-rule:evenodd;stroke-linejoin:round;stroke-miterlimit:2;"><path d="M398.241,0l-398.241,0l0,82.115l374.933,0c0,0 15.429,16.137 15.429,45.838c-0,25.29 -13.683,40.983 -13.683,40.983l-376.679,0l0,164.397l77.447,0l0,-82.281l320.383,-0c59.961,-0 73.63,-82.455 73.566,-125.526c-0.061,-39.827 -14.286,-125.526 -73.155,-125.526Zm1133.96,227.362c-2.318,9.241 -4.885,17.459 -7.271,23.856l-321.787,-0c-7.641,-22.243 -16.527,-59.659 -16.527,-89.36c0,-30.193 8.126,-61.887 14.781,-79.743l321.787,0c2.322,6.757 4.746,14.944 7.01,23.86l84.272,0c-2.763,-13.557 -5.682,-24.646 -7.563,-31.281c-12.71,-44.834 -27.847,-74.694 -60.412,-74.694l-366.241,0c-70.098,0 -75.742,160.241 -75.742,161.858c-0,39.827 10.431,80.949 14.916,96.781c12.71,44.834 27.846,74.694 60.412,74.694l366.245,0c42.607,0 61.388,-59.181 69.575,-105.971l-83.455,-0Zm-996.111,23.69c10.082,40.939 29.077,82.281 64.721,82.281l439.922,0l-0,-82.281l-504.643,-0Zm-0,-168.77l504.643,-0l-0,-82.282l-439.922,0c-35.644,0 -54.639,41.342 -64.721,82.282Zm367.841,123.108l-367.841,0l-0,-77.447l367.841,0l0,77.447Z" style="fill:#fff;fill-rule:nonzero;"/></svg>
