<?xml version="1.0" encoding="UTF-8" standalone="no"?><!DOCTYPE svg PUBLIC "-//W3C//DTD SVG 1.1//EN" "http://www.w3.org/Graphics/SVG/1.1/DTD/svg11.dtd">
<svg width="100%" height="100%" viewBox="0 0 205 334" version="1.1" xmlns="http://www.w3.org/2000/svg"
     xml:space="preserve"
     style="fill-rule:evenodd;clip-rule:evenodd;stroke-linejoin:round;stroke-miterlimit:2;"><g id="g102"><path id="path104" d="M9.826,28.821c-0,-10.462 8.533,-18.995 19.005,-18.995l146.368,-0c10.639,-0 19.172,8.533 19.172,18.995l-0,275.691c-0,10.463 -8.533,18.996 -19.172,18.996l-146.368,-0c-10.472,-0 -19.005,-8.533 -19.005,-18.996l-0,-275.691" style="fill:#fff;fill-rule:nonzero;"/></g><g id="g148"><path id="path150" d="M17.715,61.352l-0,-32.524c-0,-6.123 4.996,-11.119 11.109,-11.119l146.388,0c6.27,0 11.266,4.996 11.266,11.119l0,32.524l-168.763,0" style="fill-rule:nonzero;"/></g><rect id="path152" x="17.717" y="69.238" width="168.763" height="194.851" style="fill-rule:nonzero;"/><g id="g154"><path id="path156" d="M9.826,28.821c-0,-10.462 8.533,-18.995 19.005,-18.995l146.368,-0c10.639,-0 19.172,8.533 19.172,18.995l-0,275.691c-0,10.463 -8.533,18.996 -19.172,18.996l-146.368,-0c-10.472,-0 -19.005,-8.533 -19.005,-18.996l-0,-275.691Zm194.204,0c0,-15.939 -12.882,-28.821 -28.831,-28.821l-146.368,-0c-15.949,-0 -28.831,12.882 -28.831,28.821l-0,275.691c-0,15.939 12.882,28.821 28.831,28.821l146.368,0c15.949,0 28.831,-12.882 28.831,-28.821l0,-275.691" style="fill-rule:nonzero;"/></g><g id="g158"><path id="path160" d="M17.715,271.982l-0,32.524c-0,6.123 4.996,11.119 11.109,11.119l146.388,0c6.27,0 11.266,-4.996 11.266,-11.119l0,-32.524l-168.763,0" style="fill-rule:nonzero;"/></g><g id="g162"><path id="path164" d="M150.89,45.411c0.646,0.97 2.096,2.097 3.056,2.577c2.743,1.45 5.153,1.93 7.739,1.93c4.027,-0 6.436,-1.764 6.436,-4.35c0,-3.056 -3.056,-3.536 -7.739,-4.183c-5.946,-0.803 -9.169,-3.546 -9.169,-8.376c0.157,-4.83 4.673,-8.523 11.266,-8.523c4.516,0 7.572,0.95 9.502,1.92l0,6.29c-0.636,-1.127 -2.086,-1.94 -3.536,-2.587c-1.94,-0.646 -3.87,-0.96 -5.966,-0.96c-3.213,0 -5.143,1.284 -5.143,2.89c-0,2.743 2.576,3.067 8.209,4.193c5.633,1.127 9.013,3.546 8.856,8.543c-0.157,5.789 -4.663,9.659 -12.716,9.659c-3.546,-0 -8.052,-0.647 -10.795,-2.097l-0,-6.926" style="fill:#fff;fill-rule:nonzero;"/></g><g id="g166"><path id="path168" d="M55.074,46.7c-1.45,-2.743 -2.567,-4.83 -4.663,-5.8c4.506,-0.97 6.759,-3.536 6.759,-7.406c0,-3.703 -1.607,-6.603 -4.663,-7.729c-1.94,-0.804 -4.359,-0.804 -8.053,-0.804l-14.822,0c1.45,0.96 2.263,3.86 2.263,6.437l0,16.271c0,2.41 -0.813,5.467 -2.263,6.28l10.629,-0c-1.449,-0.813 -2.253,-3.87 -2.253,-6.28l0,-5.152l4.507,-0c2.253,-0 3.546,0.803 4.516,2.566c1.606,2.586 2.733,6.123 4.663,8.866l8.533,-0c-2.577,-1.773 -3.87,-4.516 -5.153,-7.249m-4.183,-12.883c-0,2.9 -2.41,4.027 -6.123,4.027l-6.76,-0l0,-8.22l6.76,0c3.713,0 6.123,1.127 6.123,4.193" style="fill:#fff;fill-rule:nonzero;"/></g><g id="g170"><path id="path172" d="M71.5,47.183c-1.773,-1.617 -2.576,-4.183 -2.576,-7.73c-0,-3.38 0.803,-5.956 2.576,-7.729c1.45,-1.45 3.547,-2.42 6.123,-2.42c2.576,0 4.663,0.97 6.113,2.42c1.773,1.773 2.743,4.349 2.743,7.729c-0,3.547 -0.97,6.113 -2.743,7.73c-1.45,1.449 -3.537,2.41 -6.113,2.41c-2.576,-0 -4.673,-0.961 -6.123,-2.41m6.123,7.562c4.026,0 7.396,-1.126 9.983,-3.379c3.056,-2.567 5.152,-6.437 5.152,-11.913c0,-5.319 -2.096,-9.346 -5.152,-11.912c-2.587,-2.097 -5.957,-3.223 -9.983,-3.223c-4.026,-0 -7.406,1.126 -9.992,3.223c-3.057,2.566 -5.153,6.593 -5.153,11.912c-0,5.476 2.096,9.346 5.153,11.913c2.586,2.253 6.122,3.379 9.992,3.379" style="fill:#fff;fill-rule:nonzero;"/></g><g id="g174"><path id="path176" d="M119.489,46.539c-1.607,2.096 -4.996,2.733 -8.699,2.733l-5.633,0l-0,-17.869c-0,-2.409 0.813,-5.476 2.096,-6.436l-10.472,0c1.45,0.96 2.253,4.027 2.253,6.436l0,16.263c0,2.576 -0.803,5.309 -2.253,6.279l21.738,0l0.97,-7.406" style="fill:#fff;fill-rule:nonzero;"/></g><g id="g178"><path id="path180" d="M145.738,46.539c-1.617,2.096 -4.997,2.9 -8.7,2.733l-5.789,0l-0,-17.869c-0,-2.409 0.803,-5.476 2.253,-6.436l-10.463,0c1.44,0.96 2.244,4.027 2.244,6.436l-0,16.263c-0,2.576 -0.804,5.466 -2.244,6.436l21.572,-0l1.127,-7.563" style="fill:#fff;fill-rule:nonzero;"/></g><g id="g182"><path id="path184" d="M90.018,233.011l0,-43.32c4.184,-0.156 8.21,-0.323 12.236,-0.637c-1.44,-3.389 -2.89,-6.769 -4.663,-9.982c-2.42,0.313 -4.996,0.313 -7.573,0.47l0,-9.013c-5.642,1.284 -11.745,2.254 -18.035,2.91l0,59.572c0,13.206 -6.113,16.742 -9.816,19.162l37.677,-0c-3.546,-2.42 -9.826,-5.956 -9.826,-19.162" style="fill:#fff;fill-rule:nonzero;"/></g><g id="g186"><path id="path188" d="M177.619,252.014c-3.056,-2.9 -6.926,-7.416 -8.856,-16.272c-3.546,-16.262 -10.942,-39.607 -26.568,-56.995c15.292,-8.376 24.638,-21.582 24.638,-37.844c0.167,-11.599 -5.799,-23.835 -16.419,-31.084c-4.516,-2.89 -9.825,-4.986 -16.105,-6.28c2.253,4.84 3.693,9.993 4.026,15.136c6.593,5.153 10.14,13.049 10.14,22.551c-0,12.079 -6.113,26.245 -27.538,33.494c1.773,3.38 3.546,6.926 4.996,10.306c1.117,-0.323 2.253,-0.646 3.38,-0.97c9.983,11.59 18.025,29.791 20.455,46.7c1.763,12.245 -2.586,18.358 -5.486,21.258l33.337,0" style="fill:#fff;fill-rule:nonzero;"/></g><g id="g190"><path id="path192" d="M140.102,232.529c-3.223,-2.9 -7.083,-7.406 -8.856,-16.262c-3.547,-16.262 -10.629,-39.127 -24.795,-55.389c0.647,-0.333 1.127,-0.49 1.763,-0.813c16.106,-8.21 25.932,-21.905 25.932,-38.647c0.156,-11.756 -5.8,-23.825 -16.429,-31.084c-8.376,-5.633 -19.642,-7.886 -33.974,-7.886l-54.272,-0c3.703,2.419 9.825,5.966 9.825,19.171l0,111.748c0,13.372 -6.122,16.742 -9.825,19.162l37.677,0c-3.537,-2.42 -9.816,-5.79 -9.816,-19.162l-0,-43.32c13.205,0 25.608,-1.606 36.07,-4.349c9.493,11.442 16.586,29.154 18.839,45.416c1.606,12.226 -2.577,18.515 -5.477,21.415l33.338,0Zm-82.77,-72.464l-0,-67.635l25.608,0c9.336,0.167 16.262,2.097 21.728,5.957c7.249,5.152 11.119,13.372 11.119,23.188c-0,16.585 -11.432,37.687 -58.455,38.49" style="fill:#fff;fill-rule:nonzero;"/></g><g id="g194"><path id="path196" d="M90.018,150.403l0,-38.167l20.289,-0c-1.44,-4.183 -4.026,-7.563 -7.573,-10.14l-40.567,0c3.703,2.41 9.816,5.79 9.816,19.162l0,33.651c6.76,-0.96 12.883,-2.41 18.035,-4.506" style="fill:#fff;fill-rule:nonzero;"/></g><g id="g198"><path id="path200" d="M126.895,293.879c0,5.476 3.223,9.669 8.856,9.669c4.026,0 7.729,-1.126 9.346,-3.066l-0.97,6.28c-1.46,0.646 -4.026,1.449 -8.209,1.449c-9.023,0 -15.302,-5.319 -15.302,-14.332c-0,-4.82 1.93,-8.532 4.829,-10.942c2.577,-2.263 6.113,-3.547 10.473,-3.547c4.183,0 6.749,0.804 8.209,1.597l0,5.966c-1.773,-1.92 -4.35,-2.9 -8.376,-2.9c-5.633,0 -8.856,4.193 -8.856,9.826" style="fill:#fff;fill-rule:nonzero;"/></g><g id="g202"><path id="path204" d="M53.949,300.641c-1.283,-2.577 -2.41,-4.663 -4.35,-5.477c4.193,-0.793 6.28,-3.379 6.446,-6.926c0,-3.693 -1.616,-6.436 -4.506,-7.562c-1.773,-0.637 -4.183,-0.637 -7.739,-0.637l-14.009,-0c1.293,0.803 2.096,3.536 2.096,6.113l0,15.459c0,2.253 -0.803,5.162 -2.096,6.122l9.983,0c-1.284,-0.96 -2.087,-3.869 -2.087,-6.122l-0,-4.997l4.183,0c2.253,0 3.546,0.97 4.506,2.587c1.45,2.41 2.577,5.799 4.35,8.366l8.219,0.166c-2.586,-1.939 -3.703,-4.359 -4.996,-7.092m-4.026,-12.226c-0,2.723 -2.253,3.85 -5.8,3.85l-6.436,-0l-0,-7.72l6.436,0c3.547,0 5.8,0.96 5.8,3.87" style="fill:#fff;fill-rule:nonzero;"/></g><g id="g206"><path id="path208" d="M69.566,301.124c-1.606,-1.45 -2.409,-3.86 -2.409,-7.25c-0,-3.37 0.803,-5.789 2.409,-7.396c1.45,-1.46 3.39,-2.263 5.957,-2.263c2.419,0 4.349,0.803 5.799,2.263c1.607,1.607 2.42,4.026 2.42,7.396c-0,3.39 -0.813,5.8 -2.42,7.25c-1.45,1.459 -3.38,2.419 -5.799,2.419c-2.567,0 -4.507,-0.96 -5.957,-2.419m5.8,7.259c3.87,-0 7.083,-1.137 9.503,-3.233c2.899,-2.41 4.986,-6.123 4.986,-11.276c-0,-5.153 -2.087,-8.856 -4.986,-11.422c-2.42,-1.94 -5.633,-3.067 -9.503,-3.067c-3.703,0 -6.926,1.127 -9.336,3.067c-2.9,2.566 -4.996,6.269 -4.996,11.422c-0,5.153 2.096,8.866 4.996,11.276c2.41,2.096 5.633,3.233 9.336,3.233" style="fill:#fff;fill-rule:nonzero;"/></g><g id="g210"><path id="path212" d="M111.435,280.035c0.647,0.49 0.97,0.97 0.804,1.606c-0,0.647 -0.314,1.617 -0.96,2.577l-5.477,7.896l-5.476,-8.053c-0.637,-0.979 -1.293,-1.93 -1.126,-2.743c0.166,-0.48 0.323,-0.96 0.96,-1.283l-11.109,-0c1.929,0.803 2.899,2.253 4.349,4.349l9.023,12.716l-0,4.507c-0,2.263 -0.804,5.153 -2.097,5.966l9.983,-0c-1.284,-0.813 -2.097,-3.703 -2.097,-5.966l0,-4.507l8.22,-11.589c1.283,-1.616 3.056,-4.506 4.986,-5.476l-9.983,-0" style="fill:#fff;fill-rule:nonzero;"/></g><g id="g214"><path id="path216" d="M164.899,303.218l-7.082,0l-0,-7.563l10.629,0l0.636,-4.183l-11.265,0l-0,-6.936l6.279,0c3.546,0 6.446,0.177 7.886,1.617l0,-6.123l-22.061,0c1.293,0.96 2.096,3.86 2.096,6.123l0,15.459c0,2.419 -0.803,5.152 -2.096,6.113l22.228,-0l0.96,-6.76c-1.607,2.096 -4.663,2.253 -8.21,2.253" style="fill:#fff;fill-rule:nonzero;"/></g></svg>
