<?xml version="1.0" encoding="UTF-8" standalone="no"?><!DOCTYPE svg PUBLIC "-//W3C//DTD SVG 1.1//EN" "http://www.w3.org/Graphics/SVG/1.1/DTD/svg11.dtd">
<svg width="100%" height="100%" viewBox="0 0 2096 334" version="1.1" xmlns="http://www.w3.org/2000/svg"
     xml:space="preserve"
     style="fill-rule:evenodd;clip-rule:evenodd;stroke-linejoin:round;stroke-miterlimit:2;"><g id="Ebene_x0020_1"><path d="M2070.54,11.696l0,62.394c-32.324,-12.203 -61.103,-18.373 -86.291,-18.373c-14.919,0 -26.8,2.763 -35.732,8.104c-8.934,5.387 -13.493,12.019 -13.493,19.847c0,10.406 10.085,19.661 30.391,27.95l58.664,28.549c47.429,22.609 70.959,52.631 70.959,90.344c-0,31.357 -12.479,56.361 -37.667,74.872c-25.004,18.696 -58.664,27.95 -100.566,27.95c-19.34,0 -36.699,-0.828 -52.125,-2.578c-15.425,-1.657 -33.154,-5.065 -52.816,-9.947l0,-65.294c36.055,12.203 68.886,18.373 98.448,18.373c35.272,0 52.816,-10.222 52.816,-30.851c0,-10.269 -7.184,-18.557 -21.78,-25.05l-65.157,-27.767c-24.036,-10.866 -41.902,-24.036 -53.598,-39.645c-11.511,-15.748 -17.36,-33.799 -17.36,-54.428c-0,-28.872 12.156,-52.125 36.193,-69.807c24.221,-17.545 56.362,-26.339 96.33,-26.339c12.985,-0 27.951,1.151 44.528,3.269c16.715,2.256 32.785,5.019 48.256,8.427Z" style="fill:#fff;"/><path d="M225.169,11.696l0,62.394c-32.325,-12.203 -61.058,-18.373 -86.246,-18.373c-14.965,0 -26.799,2.763 -35.732,8.104c-8.933,5.387 -13.492,12.019 -13.492,19.847c0,10.406 10.223,19.661 30.53,27.95l58.663,28.549c47.244,22.609 70.821,52.631 70.821,90.344c-0,31.357 -12.525,56.361 -37.529,74.872c-25.188,18.696 -58.664,27.95 -100.704,27.95c-19.34,0 -36.746,-0.828 -52.172,-2.578c-15.425,-1.657 -32.969,-5.065 -52.769,-9.947l0,-65.294c36.193,12.203 69.024,18.373 98.402,18.373c35.272,0 52.816,-10.222 52.816,-30.851c0,-10.269 -7.137,-18.557 -21.596,-25.05l-65.156,-27.767c-24.222,-10.866 -42.088,-24.036 -53.599,-39.645c-11.696,-15.748 -17.406,-33.799 -17.406,-54.428c0,-28.872 12.065,-52.125 36.239,-69.807c24.037,-17.545 56.223,-26.339 96.192,-26.339c13.123,-0 27.905,1.151 44.665,3.269c16.578,2.256 32.648,5.019 48.073,8.427Z" style="fill:#fff;"/><path d="M292.398,5.848l95.548,-0l-0,321.638l-95.548,-0l-0,-321.638Z" style="fill:#fff;"/><path d="M695.769,5.848l-0,59.447l-141.963,0l-0,71.326l123.13,-0l0,53.598l-123.13,0l-0,74.874l144.864,-0l-0,62.393l-236.819,-0l0,-321.638l233.918,-0Z" style="fill:#fff;"/><path d="M1141.82,5.848l0,321.638l-89.197,-0l-0,-212.139l-92.549,215.086l-55.072,-0l-89.009,-215.086l0,212.139l-64.511,-0l-0,-321.638l116.636,-0l79.615,196.896l83.3,-196.896l110.787,-0Z" style="fill:#fff;"/><path d="M1449.51,5.848l-0,59.447l-141.188,0l0,71.326l123.13,-0l-0,53.598l-123.13,0l0,74.874l144.088,-0l0,62.393l-236.817,-0l-0,-321.638l233.917,-0Z" style="fill:#fff;"/><path d="M1784.78,5.848l-0,321.638l-101.347,-0l-113.731,-206.291l0,206.291l-64.471,-0l0,-321.638l104.301,-0l110.788,202.745l-0,-202.745l64.46,-0Z" style="fill:#fff;"/></g></svg>
