<?xml version="1.0" encoding="UTF-8" standalone="no"?><!DOCTYPE svg PUBLIC "-//W3C//DTD SVG 1.1//EN" "http://www.w3.org/Graphics/SVG/1.1/DTD/svg11.dtd">
<svg width="100%" height="100%" viewBox="0 0 10417 10157" version="1.1" xmlns="http://www.w3.org/2000/svg"
     xml:space="preserve"
     style="fill-rule:evenodd;clip-rule:evenodd;stroke-linejoin:round;stroke-miterlimit:2;"><rect x="434.028" y="434.028" width="9548.61" height="9288.19" style="fill:#2e001e;fill-rule:nonzero;"/><path d="M0,0l0,10156.2l10416.7,0l-0,-10156.2l-10416.7,0Zm434.028,434.028l9548.61,-0l-0,9288.19l-9548.61,0l-0,-9288.19Z" style="fill:#ff2bc2;fill-rule:nonzero;"/><path d="M7565.1,4266.49c-65.104,-30.382 -147.569,-43.403 -251.736,-43.403c-546.875,0 -911.458,421.007 -911.458,1119.79c-0,798.611 373.264,1119.79 859.375,1119.79c104.166,-0 217.014,-13.021 299.479,-47.743l-0,-2148.44l4.34,0Zm-1944.44,1111.11c-0,-1011.28 651.041,-1801.22 1718.75,-1801.22c91.146,-0 138.889,-0 225.694,8.68l0,-1128.47c0,-26.041 21.702,-43.403 43.403,-43.403l698.785,0c34.722,0 43.402,13.021 43.402,34.723l0,3967.01c0,117.187 0,264.757 21.702,425.347c-0,30.382 -0,34.722 -26.042,47.743c-364.583,173.611 -746.528,251.736 -1111.11,251.736c-941.84,-0 -1614.58,-581.597 -1614.58,-1762.15Zm-1480.04,-703.125l1215.28,2356.77c21.701,34.722 8.68,69.444 -26.042,69.444l-755.208,0c-47.743,0 -69.445,-13.02 -91.146,-56.423c-277.778,-572.917 -559.896,-1167.54 -850.695,-1783.85l-8.68,-0c-260.417,581.597 -546.875,1215.28 -824.653,1788.19c-21.701,34.722 -43.403,47.743 -78.125,47.743l-720.486,0c-43.403,0 -47.743,-34.722 -26.042,-60.764l1189.24,-2287.33l-1150.17,-2274.31c-26.042,-34.722 -0,-65.104 30.382,-65.104l746.528,0c43.402,0 65.104,8.681 78.125,47.743c273.437,577.257 551.215,1145.83 811.632,1727.43l8.68,-0c251.736,-572.917 529.514,-1150.17 794.271,-1718.75c21.701,-34.722 34.722,-56.424 78.125,-56.424l698.785,0c34.722,0 47.743,26.042 26.041,65.104l-1145.83,2200.52Z" style="fill:#ff2bc2;fill-rule:nonzero;"/></svg>
