<?xml version="1.0" encoding="UTF-8" standalone="no"?><!DOCTYPE svg PUBLIC "-//W3C//DTD SVG 1.1//EN" "http://www.w3.org/Graphics/SVG/1.1/DTD/svg11.dtd">
<svg width="100%" height="100%" viewBox="0 0 177 177" version="1.1" xmlns="http://www.w3.org/2000/svg"
     xml:space="preserve"
     style="fill-rule:evenodd;clip-rule:evenodd;stroke-linejoin:round;stroke-miterlimit:2;"><path d="M173.47,80.543l-77.217,-77.209c-4.441,-4.445 -11.654,-4.445 -16.104,0l-16.029,16.034l20.333,20.333c4.729,-1.596 10.146,-0.521 13.904,3.238c3.656,3.661 4.906,9.111 3.213,14l19.6,19.6c4.687,-1.634 10.208,-0.571 14,3.208c2.545,2.539 3.976,5.99 3.976,9.585c0,6.117 -4.144,11.511 -10.055,13.086c-4.67,1.252 -9.67,-0.088 -13.088,-3.509c-3.979,-3.983 -4.958,-9.833 -2.946,-14.737l-18.229,-18.229l0,48.104c1.25,0.642 2.509,1.487 3.584,2.562c5.291,5.292 5.291,13.867 -0,19.167c-2.539,2.542 -5.989,3.972 -9.582,3.972c-3.593,0 -7.042,-1.43 -9.581,-3.972c-5.292,-5.304 -5.292,-13.875 0,-19.167c1.27,-1.268 2.778,-2.274 4.438,-2.958l-0,-48.542c-1.563,-0.666 -3.125,-1.641 -4.438,-2.916c-3.882,-3.88 -5.038,-9.751 -2.917,-14.813l-20.05,-20.054l-52.979,52.854c-4.404,4.425 -4.404,11.684 0,16.109l77.221,77.208c4.442,4.446 11.654,4.446 16.104,-0l76.842,-76.846c4.404,-4.425 4.404,-11.684 -0,-16.108" style="fill:#f03c2e;fill-rule:nonzero;"/></svg>
