<?xml version="1.0" encoding="UTF-8" standalone="no"?><!DOCTYPE svg PUBLIC "-//W3C//DTD SVG 1.1//EN" "http://www.w3.org/Graphics/SVG/1.1/DTD/svg11.dtd">
<svg width="100%" height="100%" viewBox="0 0 856 320" version="1.1" xmlns="http://www.w3.org/2000/svg"
     xml:space="preserve"
     style="fill-rule:evenodd;clip-rule:evenodd;stroke-linejoin:round;stroke-miterlimit:2;"><g><g><g><g><path d="M64.583,96.81c-1.666,-0 -2.083,-0.834 -1.25,-2.084l8.75,-11.25c0.834,-1.25 2.917,-2.083 4.584,-2.083l148.75,0c1.666,0 2.083,1.25 1.25,2.5l-7.084,10.833c-0.833,1.25 -2.916,2.5 -4.166,2.5l-150.834,-0.416Z" style="fill:#00acd7;fill-rule:nonzero;"/></g></g></g><g><g><g><path d="M1.667,135.143c-1.667,0 -2.084,-0.833 -1.25,-2.083l8.75,-11.25c0.833,-1.25 2.916,-2.084 4.583,-2.084l190,0c1.667,0 2.5,1.25 2.083,2.5l-3.333,10c-0.417,1.667 -2.083,2.5 -3.75,2.5l-197.083,0.417Z" style="fill:#00acd7;fill-rule:nonzero;"/></g></g></g><g><g><g><path d="M102.5,173.476c-1.667,0 -2.083,-1.25 -1.25,-2.5l5.833,-10.416c0.834,-1.25 2.5,-2.5 4.167,-2.5l83.333,-0c1.667,-0 2.5,1.25 2.5,2.916l-0.833,10c-0,1.667 -1.667,2.917 -2.917,2.917l-90.833,-0.417Z" style="fill:#00acd7;fill-rule:nonzero;"/></g></g></g><g><g id="CXHf1q_3_"><g><g><path d="M535,89.31c-26.25,6.666 -44.167,11.666 -70,18.333c-6.25,1.667 -6.667,2.083 -12.083,-4.167c-6.25,-7.083 -10.834,-11.666 -19.584,-15.833c-26.25,-12.917 -51.666,-9.167 -75.416,6.25c-28.334,18.333 -42.917,45.417 -42.5,79.167c0.416,33.333 23.333,60.833 56.25,65.416c28.333,3.75 52.083,-6.25 70.833,-27.5c3.75,-4.583 7.083,-9.583 11.25,-15.416l-80.417,-0c-8.75,-0 -10.833,-5.417 -7.916,-12.5c5.416,-12.917 15.416,-34.584 21.25,-45.417c1.25,-2.5 4.166,-6.667 10.416,-6.667l151.667,0c-0.833,11.25 -0.833,22.5 -2.5,33.75c-4.583,30 -15.833,57.5 -34.167,81.667c-30,39.583 -69.166,64.167 -118.75,70.833c-40.833,5.417 -78.75,-2.5 -112.083,-27.5c-30.833,-23.333 -48.333,-54.166 -52.917,-92.5c-5.416,-45.416 7.917,-86.25 35.417,-122.083c29.583,-38.75 68.75,-63.333 116.667,-72.083c39.166,-7.084 76.666,-2.5 110.416,20.416c22.084,14.584 37.917,34.584 48.334,58.75c2.5,3.75 0.833,5.834 -4.167,7.084Z" style="fill:#00acd7;fill-rule:nonzero;"/></g><g><path d="M672.917,319.726c-37.917,-0.833 -72.5,-11.666 -101.667,-36.666c-24.583,-21.25 -40,-48.334 -45,-80.417c-7.5,-47.083 5.417,-88.75 33.75,-125.833c30.417,-40 67.083,-60.834 116.667,-69.584c42.5,-7.5 82.5,-3.333 118.75,21.25c32.916,22.5 53.333,52.917 58.75,92.917c7.083,56.25 -9.167,102.083 -47.917,141.25c-27.5,27.917 -61.25,45.417 -100,53.333c-11.25,2.084 -22.5,2.5 -33.333,3.75Zm99.166,-168.333c-0.416,-5.417 -0.416,-9.583 -1.25,-13.75c-7.5,-41.25 -45.416,-64.583 -85,-55.417c-38.75,8.75 -63.75,33.334 -72.916,72.5c-7.5,32.5 8.333,65.417 38.333,78.75c22.917,10 45.833,8.75 67.917,-2.5c32.916,-17.083 50.833,-43.75 52.916,-79.583Z" style="fill:#00acd7;fill-rule:nonzero;"/></g></g></g></g></g></svg>
