<?xml version="1.0" encoding="UTF-8" standalone="no"?><!DOCTYPE svg PUBLIC "-//W3C//DTD SVG 1.1//EN" "http://www.w3.org/Graphics/SVG/1.1/DTD/svg11.dtd">
<svg width="100%" height="100%" viewBox="0 0 132 150" version="1.1" xmlns="http://www.w3.org/2000/svg"
     xml:space="preserve"
     style="fill-rule:evenodd;clip-rule:evenodd;stroke-linejoin:round;stroke-miterlimit:2;"><path d="M0,0l131.821,0l-12.008,134.533l-53.98,14.967l-53.833,-14.946l-12,-134.554Z" style="fill:#e44d26;fill-rule:nonzero;"/><path d="M109.542,125.971l10.262,-114.967l-53.846,0l0,127.059l43.584,-12.092Z" style="fill:#f16529;fill-rule:nonzero;"/><path d="M44.083,60.908l-1.508,-16.9l23.383,0l0,-16.5l-41.375,0l4.45,49.904l36.925,0l0,-16.5l-21.875,-0.004Zm-14.358,24.759l2.313,25.916l33.804,9.384l0.075,-0.021l-0,-17.167l-0.071,0.021l-18.333,-5l-1.175,-13.167l-8.93,0l-7.683,0.034Z" style="fill:#ebebeb;fill-rule:nonzero;"/><path d="M103.817,65.333l0.404,-4.433l-38.358,0l-0,16.5l20.32,0l-1.916,21.404l-18.404,4.967l-0,17.167l33.833,-9.376l0.25,-2.791l3.871,-43.438Zm-37.917,-21.325l39.863,0l1.479,-16.541l-41.342,-0l0,16.541Z" style="fill:#fff;fill-rule:nonzero;"/></svg>
