<?xml version="1.0" encoding="UTF-8" standalone="no"?><!DOCTYPE svg PUBLIC "-//W3C//DTD SVG 1.1//EN" "http://www.w3.org/Graphics/SVG/1.1/DTD/svg11.dtd">
<svg width="100%" height="100%" viewBox="0 0 10417 10417" version="1.1" xmlns="http://www.w3.org/2000/svg"
     xml:space="preserve"
     style="fill-rule:evenodd;clip-rule:evenodd;stroke-linejoin:round;stroke-miterlimit:2;"><rect x="0" y="0" width="10416.7" height="10416.7" style="fill:#f7df1e;fill-rule:nonzero;"/><path d="M2738.93,8704.92l797.119,-482.422c153.809,272.665 293.702,503.378 629.273,503.378c321.655,-0 524.495,-125.814 524.495,-615.235l0,-3328.37l978.882,0l0,3342.2c0,1013.88 -594.319,1475.38 -1461.43,1475.38c-783.081,-0 -1237.63,-405.559 -1468.38,-895.02m3461.51,-104.818l797.038,-461.466c209.838,342.651 482.543,594.36 964.965,594.36c405.64,0 664.266,-202.799 664.266,-482.503c0,-335.612 -265.706,-454.509 -713.216,-650.228l-244.669,-104.98c-706.259,-300.578 -1174.72,-678.182 -1174.72,-1475.3c0,-734.212 559.367,-1293.62 1433.43,-1293.62c622.315,-0 1069.82,216.797 1391.44,783.162l-762.207,489.502c-167.847,-300.659 -349.569,-419.515 -629.272,-419.515c-286.703,0 -468.506,181.803 -468.506,419.515c-0,293.661 181.803,412.598 601.318,594.401l244.71,104.858c832.113,356.649 1300.58,720.215 1300.58,1538.25c0,881.104 -692.22,1363.53 -1622.19,1363.53c-908.976,-0 -1496.34,-433.513 -1783,-999.919" style="fill-rule:nonzero;"/></svg>
