<?xml version="1.0" encoding="UTF-8" standalone="no"?><!DOCTYPE svg PUBLIC "-//W3C//DTD SVG 1.1//EN" "http://www.w3.org/Graphics/SVG/1.1/DTD/svg11.dtd">
<svg width="100%" height="100%" viewBox="0 0 120 267" version="1.1" xmlns="http://www.w3.org/2000/svg"
     xml:space="preserve"
     style="fill-rule:evenodd;clip-rule:evenodd;stroke-linejoin:round;stroke-miterlimit:2;"><path d="M59.059,0.728l7.117,13.367c1.6,2.467 3.333,4.65 5.375,6.683c5.958,5.959 11.616,12.2 16.7,18.884c12.058,15.833 20.191,33.416 26,52.433c3.483,11.617 5.375,23.533 5.516,35.583c0.584,36.025 -11.766,66.959 -36.666,92.667c-4.067,4.067 -8.417,7.833 -13.084,11.183c-2.466,0 -3.633,-1.891 -4.65,-3.633c-1.891,-3.192 -3.05,-6.833 -3.633,-10.458c-0.875,-4.359 -1.45,-8.717 -1.167,-13.217l0,-2.033c-0.2,-0.434 -2.375,-200.434 -1.508,-201.459Z" style="fill:#599636;fill-rule:nonzero;"/><path d="M59.059,0.287c-0.292,-0.584 -0.583,-0.142 -0.875,0.141c0.142,2.917 -0.875,5.517 -2.467,8c-1.75,2.467 -4.066,4.359 -6.391,6.392c-12.917,11.183 -23.084,24.692 -31.225,39.8c-10.834,20.333 -16.417,42.125 -18,65.067c-0.725,8.275 2.616,37.475 5.225,45.9c7.116,22.366 19.9,41.108 36.458,57.375c4.067,3.916 8.417,7.55 12.917,11.041c1.308,0 1.45,-1.166 1.75,-2.033c0.573,-1.854 1.011,-3.748 1.308,-5.667l2.917,-21.783l-1.617,-204.233Z" style="fill:#6cac48;fill-rule:nonzero;"/><path d="M66.176,240.378c0.291,-3.333 1.891,-6.1 3.633,-8.858c-1.75,-0.725 -3.05,-2.167 -4.067,-3.775c-0.875,-1.45 -1.6,-3.192 -2.166,-4.792c-2.034,-6.1 -2.467,-12.5 -3.05,-18.733l-0,-3.775c-0.725,0.583 -0.875,5.517 -0.875,6.25c-0.424,6.588 -1.299,13.14 -2.617,19.608c-0.433,2.617 -0.725,5.225 -2.333,7.55c-0,0.292 -0,0.584 0.141,1.017c2.617,7.7 3.334,15.542 3.775,23.533l0,2.917c0,3.483 -0.141,2.75 2.75,3.917c1.167,0.433 2.467,0.583 3.634,1.45c0.875,-0 1.016,-0.725 1.016,-1.309l-0.433,-4.791l-0,-13.367c-0.142,-2.333 0.292,-4.65 0.583,-6.833l0.009,-0.009Z" style="fill:#c2bfbf;fill-rule:nonzero;"/></svg>
