<?xml version="1.0" encoding="UTF-8" standalone="no"?><!DOCTYPE svg PUBLIC "-//W3C//DTD SVG 1.1//EN" "http://www.w3.org/Graphics/SVG/1.1/DTD/svg11.dtd">
<svg width="100%" height="100%" viewBox="0 0 161 163" version="1.1" xmlns="http://www.w3.org/2000/svg"
     xml:space="preserve"
     style="fill-rule:evenodd;clip-rule:evenodd;stroke-linejoin:round;stroke-miterlimit:2;"><path d="M79.246,0c-6.612,0.029 -12.929,0.596 -18.483,1.583c-16.375,2.892 -19.342,8.946 -19.342,20.109l0,14.741l38.684,0l-0,4.917l-53.2,0c-11.242,0 -21.084,6.758 -24.167,19.613c-3.55,14.733 -3.75,23.929 0,39.312c2.75,11.45 9.317,19.613 20.558,19.613l13.3,-0l0,-17.675c0,-12.767 11.042,-24.03 24.167,-24.03l38.638,0c10.75,0 19.341,-8.854 19.341,-19.658l0,-36.8c0,-10.483 -8.841,-18.358 -19.341,-20.108c-6.646,-1.105 -13.542,-1.609 -20.155,-1.584l0,-0.033Zm-20.916,11.858c4,0 7.258,3.317 7.258,7.396c0,4.079 -3.262,7.35 -7.258,7.35c-3.996,0 -7.259,-3.291 -7.259,-7.35c0,-4.058 3.25,-7.396 7.259,-7.396Z" style="fill:url(#_Linear1);fill-rule:nonzero;"/><path d="M123.567,41.342l0,17.179c0,13.317 -11.25,24.525 -24.166,24.525l-38.634,-0c-10.583,-0 -19.341,9.058 -19.341,19.658l-0,36.834c-0,10.483 9.116,16.65 19.341,19.658c12.25,3.6 23.988,4.25 38.638,-0c9.737,-2.821 19.341,-8.5 19.341,-19.659l0,-14.741l-38.645,-0l-0,-4.917l57.979,0c11.241,0 15.433,-7.841 19.341,-19.612c4.042,-12.117 3.867,-23.771 0,-39.313c-2.779,-11.191 -8.083,-19.612 -19.341,-19.612l-14.517,-0l0.004,-0Zm-21.729,93.279c4.008,-0 7.258,3.291 7.258,7.35c0,4.058 -3.25,7.396 -7.258,7.396c-4.008,-0 -7.258,-3.317 -7.258,-7.396c-0,-4.079 3.262,-7.35 7.258,-7.35Z" style="fill:url(#_Linear2);fill-rule:nonzero;"/><defs><linearGradient id="_Linear1" x1="0" y1="0" x2="1" y2="0" gradientUnits="userSpaceOnUse" gradientTransform="matrix(88.475,76.8542,-76.8542,88.475,0.0171802,0)"><stop offset="0" style="stop-color:#5a9fd4;stop-opacity:1"/><stop offset="1" style="stop-color:#306998;stop-opacity:1"/></linearGradient><linearGradient id="_Linear2" x1="0" y1="0" x2="1" y2="0" gradientUnits="userSpaceOnUse" gradientTransform="matrix(-31.5917,-45.1292,45.1292,-31.5917,100.905,140.729)"><stop offset="0" style="stop-color:#ffd43b;stop-opacity:1"/><stop offset="1" style="stop-color:#ffe873;stop-opacity:1"/></linearGradient></defs></svg>
