<?xml version="1.0" encoding="UTF-8" standalone="no"?><!DOCTYPE svg PUBLIC "-//W3C//DTD SVG 1.1//EN" "http://www.w3.org/Graphics/SVG/1.1/DTD/svg11.dtd">
<svg width="100%" height="100%" viewBox="0 0 314 235" version="1.1" xmlns="http://www.w3.org/2000/svg"
     xml:space="preserve"
     style="fill-rule:evenodd;clip-rule:evenodd;stroke-linejoin:round;stroke-miterlimit:2;"><path d="M269.582,134.793c-10.95,0.063 -20.429,2.692 -28.383,6.609c-2.937,-5.813 -5.875,-10.888 -6.362,-14.68c-0.55,-4.404 -1.225,-7.095 -0.55,-12.358c0.675,-5.262 3.733,-12.725 3.733,-13.333c-0.063,-0.55 -0.667,-3.242 -6.975,-3.304c-6.308,-0.063 -11.75,1.225 -12.358,2.916c-1.092,3.055 -1.97,6.182 -2.63,9.359c-1.1,5.75 -12.6,26.125 -19.145,36.825c-2.142,-4.159 -3.975,-7.834 -4.342,-10.767c-0.55,-4.404 -1.225,-7.096 -0.55,-12.358c0.675,-5.263 3.733,-12.725 3.733,-13.334c-0.062,-0.55 -0.666,-3.241 -6.975,-3.304c-6.308,-0.062 -11.75,1.225 -12.358,2.917c-0.608,1.691 -1.283,5.566 -2.625,9.358c-1.283,3.75 -16.575,37.804 -20.554,46.667c-2.017,4.525 -3.75,8.137 -5.084,10.583c-1.333,2.446 -0.062,0.183 -0.183,0.429l-1.708,3.242l-0,0.062c-0.859,1.53 -1.775,3 -2.209,3c-0.304,0 -0.916,-4.1 0.125,-9.725c2.263,-11.804 7.767,-30.216 7.709,-30.891c-0,-0.304 1.041,-3.542 -3.542,-5.2c-4.467,-1.65 -6.054,1.1 -6.417,1.1c-0.362,-0 -0.666,0.979 -0.666,0.979c-0,-0 4.958,-20.738 -9.484,-20.738c-9.054,0 -21.533,9.85 -27.708,18.842l-31.196,17.067l-0.666,-0.734c-17.5,-18.658 -49.855,-31.875 -48.509,-56.95c0.488,-9.112 3.667,-33.154 62.15,-62.27c47.896,-23.855 86.25,-17.313 92.917,-2.75c9.483,20.791 -20.492,59.458 -70.283,65.025c-18.959,2.141 -28.934,-5.2 -31.442,-7.95c-2.625,-2.917 -3,-3 -3.975,-2.446c-1.592,0.858 -0.613,3.425 -0,4.958c1.467,3.854 7.583,10.708 17.983,14.125c9.113,3 31.375,4.65 58.292,-5.75c30.137,-11.812 53.687,-44.187 46.779,-71.292c-7.042,-27.587 -52.792,-36.637 -96.042,-21.283c-25.75,9.179 -53.641,23.488 -73.708,42.263c-23.854,22.266 -27.65,41.716 -26.058,49.791c5.566,28.813 45.266,47.592 61.166,61.475l-2.208,1.225c-7.95,3.917 -38.229,19.759 -45.817,36.517c-8.562,18.958 1.346,32.604 7.95,34.437c20.43,5.688 41.35,-4.525 52.667,-21.35c11.25,-16.82 9.908,-38.658 4.708,-48.625l-0.183,-0.366l6.238,-3.667c3.794,-2.229 7.628,-4.39 11.5,-6.483c-1.959,5.321 -3.363,11.625 -4.1,20.791c-0.859,10.767 3.541,24.709 9.358,30.217c2.571,2.388 5.625,2.446 7.525,2.446c6.729,-0 9.792,-5.567 13.15,-12.233c4.158,-8.138 7.833,-17.555 7.833,-17.555c0,0 -4.583,25.509 7.95,25.509c4.584,-0 9.175,-5.934 11.25,-8.992l0,0.063c0,-0 0.125,-0.184 0.367,-0.613c0.487,-0.733 0.733,-1.167 0.733,-1.167l0,-0.125c1.834,-3.179 5.934,-10.416 12.05,-22.512c7.892,-15.542 15.475,-34.988 15.475,-34.988c0,0 0.734,4.771 3,12.6c1.346,4.65 4.284,9.725 6.542,14.68l-2.938,4.041l0.063,0.063c-1.467,1.958 -3.125,4.041 -4.833,6.116c-6.238,7.459 -13.7,15.967 -14.68,18.417c-1.166,2.917 -0.916,5.017 1.346,6.729c1.65,1.225 4.584,1.467 7.709,1.225c5.625,-0.366 9.583,-1.775 11.5,-2.625c3.531,-1.258 6.866,-3.009 9.908,-5.2c6.117,-4.525 9.85,-10.95 9.483,-19.512c-0.183,-4.709 -1.708,-9.359 -3.608,-13.763l1.65,-2.446c9.667,-14.125 17.125,-29.666 17.125,-29.666c-0,-0 0.733,4.771 3,12.6c1.167,3.975 3.487,8.321 5.567,12.6c-9.055,7.4 -14.742,15.966 -16.7,21.591c-3.609,10.4 -0.792,15.109 4.525,16.25c2.387,0.488 5.812,-0.612 8.375,-1.708c3.179,-1.042 7.033,-2.812 10.583,-5.446c6.117,-4.525 11.987,-10.825 11.683,-19.333c-0.183,-3.917 -1.225,-7.767 -2.625,-11.438c7.709,-3.179 17.679,-5.016 30.342,-3.487c27.221,3.179 32.604,20.187 31.562,27.283c-1.041,7.096 -6.729,11.013 -8.625,12.234c-1.895,1.166 -2.508,1.591 -2.325,2.445c0.25,1.284 1.1,1.225 2.75,0.98c2.263,-0.367 14.313,-5.813 14.805,-18.9c0.733,-16.821 -15.234,-35.167 -43.555,-34.988l0.025,-0.046Zm-209.929,70.771c-8.991,9.85 -21.654,13.583 -27.041,10.4c-5.813,-3.362 -3.542,-17.862 7.525,-28.321c6.729,-6.362 15.475,-12.233 21.225,-15.841l5.566,-3.363c0.367,-0.25 0.613,-0.367 0.613,-0.367c0.429,-0.25 0.916,-0.55 1.408,-0.858c4.1,14.925 0.183,28.017 -9.292,38.354l-0.004,-0.004Zm65.759,-44.717c-3.125,7.646 -9.725,27.284 -13.7,26.18c-3.425,-0.917 -5.5,-15.784 -0.667,-30.459c2.446,-7.4 7.646,-16.25 10.708,-19.637c4.959,-5.5 10.334,-7.342 11.684,-5.075c1.591,2.937 -6.055,24.225 -8.013,29l-0.012,-0.009Zm54.254,25.938c-1.346,0.667 -2.571,1.167 -3.125,0.792c-0.429,-0.25 0.55,-1.167 0.55,-1.167c-0,-0 6.791,-7.279 9.483,-10.642l5.321,-6.791l-0,0.733c-0,8.808 -8.442,14.679 -12.233,17.067l0.004,0.008Zm41.841,-9.583c-0.979,-0.734 -0.858,-3 2.446,-10.092c1.284,-2.813 4.221,-7.525 9.292,-11.988c0.612,1.834 0.979,3.609 0.917,5.263c-0.063,11.012 -7.892,15.108 -12.667,16.821l0.012,-0.004Z" style="fill:#cf649a;fill-rule:nonzero;"/></svg>
