<?xml version="1.0" encoding="UTF-8" standalone="no"?><!DOCTYPE svg PUBLIC "-//W3C//DTD SVG 1.1//EN" "http://www.w3.org/Graphics/SVG/1.1/DTD/svg11.dtd">
<svg width="100%" height="100%" viewBox="0 0 409 492" version="1.1" xmlns="http://www.w3.org/2000/svg"
     xml:space="preserve"
     style="fill-rule:evenodd;clip-rule:evenodd;stroke-linejoin:round;stroke-miterlimit:2;"><path d="M382.605,65.057c-45.417,-65.417 -135.834,-84.584 -200.834,-43.334l-114.583,73.334c-31.25,19.583 -52.917,51.666 -59.167,87.916c-5.416,30.417 -0.833,61.667 13.75,88.75c-10,15 -16.666,31.667 -19.583,49.167c-6.667,37.083 2.083,75.417 23.75,105.833c45.833,65.417 135.833,84.584 200.833,43.334l114.584,-72.917c31.25,-19.583 52.916,-51.667 59.166,-87.917c5.417,-30.416 0.834,-61.666 -13.75,-88.75c10,-15 16.667,-31.666 19.584,-49.166c7.083,-37.5 -1.667,-75.834 -23.75,-106.25" style="fill:#ff3e00;fill-rule:nonzero;"/><path d="M170.521,432.973c-37.083,9.584 -75.833,-5 -97.5,-36.25c-13.333,-18.333 -18.333,-41.25 -14.583,-63.75c0.833,-3.75 1.667,-7.083 2.5,-10.833l2.083,-6.667l5.834,4.167c13.75,10 28.75,17.5 45,22.5l4.166,1.25l-0.416,4.167c-0.417,5.833 1.25,12.083 4.583,17.083c6.667,9.583 18.333,14.167 29.583,11.25c2.5,-0.833 5,-1.667 7.084,-2.917l114.166,-72.916c5.834,-3.75 9.584,-9.167 10.834,-15.834c1.25,-6.666 -0.417,-13.75 -4.167,-19.166c-6.667,-9.584 -18.333,-13.75 -29.583,-10.834c-2.5,0.834 -5,1.667 -7.084,2.917l-43.75,27.917c-7.083,4.583 -15,7.916 -23.333,10c-37.083,9.583 -75.833,-5 -97.5,-36.25c-12.917,-18.334 -18.333,-41.25 -14.167,-63.75c3.75,-21.667 17.084,-41.25 35.834,-52.917l114.583,-72.917c7.083,-4.583 15,-7.916 23.333,-10.416c37.084,-9.584 75.834,5 97.5,36.25c13.334,18.333 18.334,41.25 14.584,63.75c-0.834,3.75 -1.667,7.083 -2.917,10.833l-2.083,6.667l-5.834,-4.167c-13.75,-10 -28.75,-17.5 -45,-22.5l-4.166,-1.25l0.416,-4.167c0.417,-5.833 -1.25,-12.083 -4.583,-17.083c-6.667,-9.583 -18.333,-13.75 -29.583,-10.833c-2.5,0.833 -5,1.666 -7.084,2.916l-114.166,72.917c-5.834,3.75 -9.584,9.167 -10.834,15.833c-1.25,6.667 0.417,13.75 4.167,19.167c6.667,9.583 18.333,13.75 29.583,10.833c2.5,-0.833 5,-1.666 7.084,-2.916l43.75,-27.917c7.083,-4.583 15,-7.917 23.333,-10.417c37.083,-9.583 75.833,5 97.5,36.25c13.333,18.334 18.333,41.25 14.583,63.75c-3.75,21.667 -17.083,41.25 -35.833,52.917l-114.583,72.917c-7.084,4.583 -15,7.916 -23.334,10.416" style="fill:#fff;fill-rule:nonzero;"/></svg>
