<?xml version="1.0" encoding="UTF-8" standalone="no"?><!DOCTYPE svg PUBLIC "-//W3C//DTD SVG 1.1//EN" "http://www.w3.org/Graphics/SVG/1.1/DTD/svg11.dtd">
<svg width="100%" height="100%" viewBox="0 0 146 88" version="1.1" xmlns="http://www.w3.org/2000/svg"
     xml:space="preserve"
     style="fill-rule:evenodd;clip-rule:evenodd;stroke-linejoin:round;stroke-miterlimit:2;"><path d="M36.4,29.125c4.85,-19.417 16.988,-29.125 36.4,-29.125c29.125,0 32.758,21.833 47.317,25.479c9.708,2.429 18.2,-1.208 25.479,-10.916c-4.85,19.412 -16.988,29.12 -36.396,29.12c-29.125,0 -32.758,-21.833 -47.317,-25.479c-9.708,-2.429 -18.2,1.208 -25.479,10.917l-0.004,0.004Zm-36.4,43.683c4.858,-19.416 16.983,-29.125 36.4,-29.125c29.125,0 32.758,21.834 47.317,25.48c9.708,2.429 18.2,-1.209 25.479,-10.917c-4.85,19.417 -16.988,29.125 -36.4,29.125c-29.125,-0 -32.758,-21.833 -47.317,-25.479c-9.708,-2.429 -18.2,1.208 -25.479,10.916Z" style="fill:url(#_Linear1);"/><defs><linearGradient id="_Linear1" x1="0" y1="0" x2="1" y2="0" gradientUnits="userSpaceOnUse" gradientTransform="matrix(145.596,242.658,-242.658,145.596,0,-77.6458)"><stop offset="0" style="stop-color:#2383ae;stop-opacity:1"/><stop offset="1" style="stop-color:#6dd7b9;stop-opacity:1"/></linearGradient></defs></svg>
