<?xml version="1.0" encoding="UTF-8" standalone="no"?><!DOCTYPE svg PUBLIC "-//W3C//DTD SVG 1.1//EN" "http://www.w3.org/Graphics/SVG/1.1/DTD/svg11.dtd"><svg width="100%" height="100%" viewBox="0 0 2719 2079" version="1.1" xmlns="http://www.w3.org/2000/svg" xmlns:xlink="http://www.w3.org/1999/xlink" xml:space="preserve" xmlns:serif="http://www.serif.com/" style="fill-rule:evenodd;clip-rule:evenodd;stroke-linejoin:round;stroke-miterlimit:2;"><g><path d="M2303.74,1071.59c-0,209.166 -268.334,595 -432.5,725c-164.167,130 -530,-0 -735,-46.667c-205,-46.667 -657.5,-51.667 -749.167,-242.5c-91.667,-190.833 -23.333,-646.667 68.333,-837.5c91.667,-190.833 459.167,-296.667 664.167,-343.333c205,-46.667 544.167,-59.167 708.333,70.833c164.167,130 475.834,465 475.834,674.167" style="fill:url(#_Linear1);fill-rule:nonzero;"/><path d="M2507.08,1071.59c-0,249.166 -375,657.5 -569.167,811.666c-194.166,154.167 -572.5,-19.166 -815,-74.166c-242.5,-55 -838.333,25 -945.833,-200.834c-107.5,-225.833 -39.167,-815 68.333,-1040.83c107.5,-225.833 603.334,-322.5 845.834,-377.5c242.5,-55 662.5,-96.667 856.666,59.167c194.167,155.833 559.167,573.333 559.167,822.5" style="fill:url(#_Linear2);fill-rule:nonzero;"/><path d="M2452.08,1071.59c-0,246.666 -311.667,668.333 -505,822.5c-193.333,154.166 -607.5,77.5 -848.333,21.666c-240.834,-55.833 -711.667,-133.333 -818.334,-357.5c-106.666,-224.166 -208.333,-798.333 -101.666,-1022.5c106.666,-224.166 672.5,-273.333 913.333,-329.166c240.833,-55.834 727.5,-194.167 920.833,-40c193.334,154.166 439.167,658.333 439.167,905" style="fill:url(#_Linear3);fill-rule:nonzero;"/><path d="M2588.74,1071.59c-0,263.333 -383.334,724.166 -589.167,887.5c-205.833,163.333 -671.667,130 -928.333,70.833c-256.667,-59.167 -860.834,-146.667 -973.334,-384.167c-112.5,-237.5 -137.5,-923.333 -25,-1160.83c112.5,-237.5 759.167,-235.833 1015.83,-295c256.666,-59.167 655,-105.833 860.833,57.5c205.833,163.333 639.167,560.833 639.167,824.167" style="fill:url(#_Linear4);fill-rule:nonzero;"/><path d="M2468.74,1071.59c-0,224.166 -401.667,612.5 -576.667,752.5c-175,140 -555.833,69.166 -775.833,21.666c-220,-47.5 -651.667,-125 -750.834,-327.5c-99.166,-202.5 -225,-751.666 -128.333,-954.166c96.667,-202.5 643.333,-277.5 863.333,-329.167c220,-51.667 591.667,-28.333 768.334,111.667c176.666,140 600,500.833 600,725" style="fill:url(#_Linear5);fill-rule:nonzero;"/><path d="M2413.74,1071.59c-0,207.5 -352.5,625.833 -515.834,756.666c-163.333,130.834 -583.333,75.834 -786.666,27.5c-203.334,-48.333 -653.334,-151.666 -744.167,-339.166c-90.833,-187.5 -69.167,-691.667 21.667,-879.167c90.833,-187.5 534.166,-234.167 737.5,-282.5c203.333,-48.333 522.5,-68.333 685.833,62.5c163.333,130.833 601.667,446.667 601.667,654.167" style="fill:url(#_Linear6);fill-rule:nonzero;"/><path d="M2267.91,1071.59c0,213.333 -194.166,635.833 -361.666,770c-167.5,134.166 -586.667,68.333 -795.834,20c-209.166,-48.334 -670,-142.5 -764.166,-335c-94.167,-192.5 -149.167,-743.334 -55,-935.834c94.166,-192.5 633.333,-160 842.5,-208.333c209.166,-48.333 515.833,-103.333 683.333,28.333c167.5,131.667 450.833,447.5 450.833,660.834" style="fill:url(#_Linear7);fill-rule:nonzero;"/><path d="M2718.74,1071.59c-0,277.5 -487.5,733.333 -705,906.666c-217.5,173.334 -661.667,81.667 -933.334,19.167c-271.666,-62.5 -799.166,-130.833 -920,-381.667c-120.833,-250.833 -205,-879.166 -84.166,-1130c120.833,-250.833 705.833,-398.333 977.5,-460.833c271.666,-62.5 722.5,-7.5 940,165.833c217.5,173.334 725,603.334 725,880.834" style="fill:url(#_Linear8);fill-rule:nonzero;"/><path d="M2301.24,1071.59c-0,206.666 -283.334,577.5 -446.667,706.666c-163.333,129.167 -518.333,28.334 -720.833,-19.166c-202.5,-47.5 -720.834,-35.834 -809.167,-223.334c-88.333,-187.5 -53.333,-724.166 35,-911.666c88.333,-187.5 556.667,-255 759.167,-302.5c202.5,-47.5 603.333,-125 766.666,4.166c163.334,129.167 415.834,539.167 415.834,745.834" style="fill:url(#_Linear9);fill-rule:nonzero;"/><path d="M2470.41,1071.59c0,233.333 -411.666,589.166 -594.166,735c-182.5,145.833 -536.667,110.833 -765.834,60c-229.166,-50.834 -656.666,-131.667 -758.333,-342.5c-101.667,-210.834 -84.167,-684.167 17.5,-895c101.667,-210.834 494.167,-372.5 723.333,-425c229.167,-52.5 575.834,20.833 758.334,166.666c182.5,145.834 619.166,467.5 619.166,700.834" style="fill:url(#_Linear10);fill-rule:nonzero;"/></g><defs><linearGradient id="_Linear1" x1="0" y1="0" x2="1" y2="0" gradientUnits="userSpaceOnUse" gradientTransform="matrix(1960.06,0,0,1960.06,343.68,293.879)"><stop offset="0" style="stop-color:#fee047;stop-opacity:0.4"/><stop offset="1" style="stop-color:#fee047;stop-opacity:0.4"/></linearGradient><linearGradient id="_Linear2" x1="0" y1="0" x2="1" y2="0" gradientUnits="userSpaceOnUse" gradientTransform="matrix(2384.12,0,0,2384.12,122.951,140.301)"><stop offset="0" style="stop-color:#fee047;stop-opacity:0.4"/><stop offset="1" style="stop-color:#fee047;stop-opacity:0.4"/></linearGradient><linearGradient id="_Linear3" x1="0" y1="0" x2="1" y2="0" gradientUnits="userSpaceOnUse" gradientTransform="matrix(2318.57,0,0,2318.57,133.502,96.0259)"><stop offset="0" style="stop-color:#fee047;stop-opacity:0.4"/><stop offset="1" style="stop-color:#fee047;stop-opacity:0.4"/></linearGradient><linearGradient id="_Linear4" x1="0" y1="0" x2="1" y2="0" gradientUnits="userSpaceOnUse" gradientTransform="matrix(2588.74,0,0,2588.74,-5.68434e-14,135.181)"><stop offset="0" style="stop-color:#fee047;stop-opacity:0.4"/><stop offset="1" style="stop-color:#fee047;stop-opacity:0.4"/></linearGradient><linearGradient id="_Linear5" x1="0" y1="0" x2="1" y2="0" gradientUnits="userSpaceOnUse" gradientTransform="matrix(2266.35,0,0,2266.35,202.396,209.72)"><stop offset="0" style="stop-color:#fee047;stop-opacity:0.4"/><stop offset="1" style="stop-color:#fee047;stop-opacity:0.4"/></linearGradient><linearGradient id="_Linear6" x1="0" y1="0" x2="1" y2="0" gradientUnits="userSpaceOnUse" gradientTransform="matrix(2104.92,0,0,2104.92,308.823,318.008)"><stop offset="0" style="stop-color:#fee047;stop-opacity:0.4"/><stop offset="1" style="stop-color:#fee047;stop-opacity:0.4"/></linearGradient><linearGradient id="_Linear7" x1="0" y1="0" x2="1" y2="0" gradientUnits="userSpaceOnUse" gradientTransform="matrix(2025.51,0,0,2025.51,242.398,328.723)"><stop offset="0" style="stop-color:#fee047;stop-opacity:0.4"/><stop offset="1" style="stop-color:#fee047;stop-opacity:0.4"/></linearGradient><linearGradient id="_Linear8" x1="0" y1="0" x2="1" y2="0" gradientUnits="userSpaceOnUse" gradientTransform="matrix(2701.28,0,0,2701.28,17.4654,0)"><stop offset="0" style="stop-color:#fee047;stop-opacity:0.4"/><stop offset="1" style="stop-color:#fee047;stop-opacity:0.4"/></linearGradient><linearGradient id="_Linear9" x1="0" y1="0" x2="1" y2="0" gradientUnits="userSpaceOnUse" gradientTransform="matrix(2027.95,0,0,2027.95,273.289,254.785)"><stop offset="0" style="stop-color:#fee047;stop-opacity:0.4"/><stop offset="1" style="stop-color:#fee047;stop-opacity:0.4"/></linearGradient><linearGradient id="_Linear10" x1="0" y1="0" x2="1" y2="0" gradientUnits="userSpaceOnUse" gradientTransform="matrix(2186.4,0,0,2186.4,284.013,187.137)"><stop offset="0" style="stop-color:#fee047;stop-opacity:0.4"/><stop offset="1" style="stop-color:#fee047;stop-opacity:0.4"/></linearGradient></defs></svg>