<?xml version="1.0" encoding="UTF-8" standalone="no"?><!DOCTYPE svg PUBLIC "-//W3C//DTD SVG 1.1//EN" "http://www.w3.org/Graphics/SVG/1.1/DTD/svg11.dtd">
<svg width="100%" height="100%" viewBox="0 0 197 129" version="1.1" xmlns="http://www.w3.org/2000/svg"
     xml:space="preserve" xmlns:serif="http://www.serif.com/" style="fill-rule:evenodd;clip-rule:evenodd;"><path d="M113.479,51.054l17.593,-0l0,17.985l8.896,-0c4.109,-0 8.333,-0.731 12.224,-2.05c1.911,-0.648 4.057,-1.55 5.943,-2.693c-2.484,-3.242 -3.752,-7.337 -4.124,-11.372c-0.508,-5.489 0.6,-12.634 4.309,-16.93l1.849,-2.139l2.204,1.771c5.54,4.458 10.215,10.695 11.037,17.787c6.681,-1.965 14.525,-1.5 20.413,1.899l2.416,1.394l-1.272,2.482c-4.974,9.728 -15.386,12.738 -25.565,12.205c-15.232,37.94 -48.394,55.9 -88.603,55.9c-20.774,0 -39.832,-7.766 -50.686,-26.196c-0.636,-1.145 -1.181,-2.342 -1.759,-3.518c-3.668,-8.112 -4.887,-17 -4.061,-25.881l0.248,-2.659l15.045,-0l0,-17.985l17.594,-0l-0,-17.594l35.186,0l0,-17.593l21.113,-0l0,35.187" style="fill:#394d54;fill-rule:nonzero;"/><g><clipPath id="_clip1"><path d="M58.475,17.406l0,35.393l-16.927,-0l0,17.696l-14.172,0l-0.159,1.539c-0.885,9.641 0.797,18.534 4.665,26.137l1.299,2.331c0.769,1.398 1.693,2.711 2.645,3.992c0.953,1.281 1.297,1.987 1.901,2.838c10.223,11.482 25.465,17.022 43.061,17.022c38.97,0 72.043,-17.264 86.679,-56.047c10.385,1.065 20.347,-1.597 24.886,-10.459c-7.232,-4.173 -16.525,-2.835 -21.88,-0.144l14.186,-40.298l-55.398,35.393l-17.696,-0l-0,-35.393l-53.09,-0Z"/></clipPath><g clip-path="url(#_clip1)"><g id="B"><g id="C"><rect x="95.299" y="1.197" width="15.248" height="15.247" style="fill:#00acd3;fill-rule:nonzero;"/><rect x="95.299" y="18.798" width="15.248" height="15.248" style="fill:#20c2ef;fill-rule:nonzero;"/><path id="D" d="M97.171,15.183l-0,-12.709m2.286,12.708l0,-12.708m2.31,12.708l0,-12.708m2.311,12.708l-0,-12.708m2.31,12.708l0,-12.708m2.285,12.708l0,-12.708" style="fill-rule:nonzero;stroke:#394d54;stroke-width:1.2px;"/><path id="D1" serif:id="D" d="M97.171,32.776l-0,-12.708m2.286,12.707l0,-12.707m2.31,12.707l0,-12.707m2.311,12.707l-0,-12.707m2.31,12.707l0,-12.707m2.285,12.707l0,-12.707" style="fill-rule:nonzero;stroke:#394d54;stroke-width:1.2px;"/></g><g id="C1" serif:id="C"><rect x="112.893" y="18.807" width="15.248" height="15.247" style="fill:#00acd3;fill-rule:nonzero;"/><rect x="112.893" y="1.205" width="15.248" height="15.248" style="fill:#20c2ef;fill-rule:nonzero;"/><path id="D2" serif:id="D" d="M114.764,20.069l0,12.708m2.287,-12.707l-0,12.707m2.309,-12.707l0,12.707m2.311,-12.707l0,12.707m2.311,-12.707l-0,12.707m2.285,-12.707l-0,12.707" style="fill-rule:nonzero;stroke:#394d54;stroke-width:1.2px;"/><path id="D3" serif:id="D" d="M114.764,2.476l0,12.708m2.287,-12.708l-0,12.708m2.309,-12.708l0,12.708m2.311,-12.708l0,12.708m2.311,-12.708l-0,12.708m2.285,-12.708l-0,12.708" style="fill-rule:nonzero;stroke:#394d54;stroke-width:1.2px;"/></g></g><g id="B1" serif:id="B"><g id="C2" serif:id="C"><rect x="24.926" y="36.384" width="15.248" height="15.247" style="fill:#00acd3;fill-rule:nonzero;"/><rect x="24.926" y="53.985" width="15.248" height="15.248" style="fill:#20c2ef;fill-rule:nonzero;"/><path id="D4" serif:id="D" d="M26.797,50.37l0,-12.709m2.287,12.708l-0,-12.708m2.31,12.708l-0,-12.708m2.31,12.708l0,-12.708m2.311,12.708l-0,-12.708m2.285,12.708l-0,-12.708" style="fill-rule:nonzero;stroke:#394d54;stroke-width:1.2px;"/><path id="D5" serif:id="D" d="M26.797,67.963l0,-12.708m2.287,12.707l-0,-12.707m2.31,12.707l-0,-12.707m2.31,12.707l0,-12.707m2.311,12.707l-0,-12.707m2.285,12.707l-0,-12.707" style="fill-rule:nonzero;stroke:#394d54;stroke-width:1.2px;"/></g><g id="C3" serif:id="C"><rect x="42.519" y="53.994" width="15.248" height="15.247" style="fill:#00acd3;fill-rule:nonzero;"/><rect x="42.519" y="36.392" width="15.248" height="15.248" style="fill:#20c2ef;fill-rule:nonzero;"/><path id="D6" serif:id="D" d="M44.39,55.256l0,12.708m2.287,-12.707l0,12.707m2.31,-12.707l-0,12.707m2.311,-12.707l-0,12.707m2.31,-12.707l0,12.707m2.285,-12.707l0,12.707" style="fill-rule:nonzero;stroke:#394d54;stroke-width:1.2px;"/><path id="D7" serif:id="D" d="M44.39,37.662l0,12.709m2.287,-12.708l0,12.708m2.31,-12.708l-0,12.708m2.311,-12.708l-0,12.708m2.31,-12.708l0,12.708m2.285,-12.708l0,12.708" style="fill-rule:nonzero;stroke:#394d54;stroke-width:1.2px;"/></g></g><g id="B2" serif:id="B"><g id="C4" serif:id="C"><rect x="60.113" y="36.384" width="15.248" height="15.247" style="fill:#00acd3;fill-rule:nonzero;"/><rect x="60.113" y="53.985" width="15.248" height="15.248" style="fill:#20c2ef;fill-rule:nonzero;"/><path id="D8" serif:id="D" d="M61.984,50.37l-0,-12.709m2.287,12.708l-0,-12.708m2.309,12.708l0,-12.708m2.311,12.708l-0,-12.708m2.31,12.708l0,-12.708m2.286,12.708l-0,-12.708" style="fill-rule:nonzero;stroke:#394d54;stroke-width:1.2px;"/><path id="D9" serif:id="D" d="M61.984,67.963l-0,-12.708m2.287,12.707l-0,-12.707m2.309,12.707l0,-12.707m2.311,12.707l-0,-12.707m2.31,12.707l0,-12.707m2.286,12.707l-0,-12.707" style="fill-rule:nonzero;stroke:#394d54;stroke-width:1.2px;"/></g><g id="C5" serif:id="C"><rect x="77.706" y="53.994" width="15.248" height="15.247" style="fill:#00acd3;fill-rule:nonzero;"/><rect x="77.706" y="36.392" width="15.248" height="15.248" style="fill:#20c2ef;fill-rule:nonzero;"/><path id="D10" serif:id="D" d="M79.577,55.256l0,12.708m2.287,-12.707l-0,12.707m2.31,-12.707l-0,12.707m2.31,-12.707l0,12.707m2.311,-12.707l-0,12.707m2.285,-12.707l-0,12.707" style="fill-rule:nonzero;stroke:#394d54;stroke-width:1.2px;"/><path id="D11" serif:id="D" d="M79.577,37.662l0,12.709m2.287,-12.708l-0,12.708m2.31,-12.708l-0,12.708m2.31,-12.708l0,12.708m2.311,-12.708l-0,12.708m2.285,-12.708l-0,12.708" style="fill-rule:nonzero;stroke:#394d54;stroke-width:1.2px;"/></g></g><g id="B3" serif:id="B"><g id="C6" serif:id="C"><rect x="95.299" y="36.384" width="15.248" height="15.247" style="fill:#00acd3;fill-rule:nonzero;"/><rect x="95.299" y="53.985" width="15.248" height="15.248" style="fill:#20c2ef;fill-rule:nonzero;"/><path id="D12" serif:id="D" d="M97.171,50.37l-0,-12.709m2.286,12.708l0,-12.708m2.31,12.708l0,-12.708m2.311,12.708l-0,-12.708m2.31,12.708l0,-12.708m2.285,12.708l0,-12.708" style="fill-rule:nonzero;stroke:#394d54;stroke-width:1.2px;"/><path id="D13" serif:id="D" d="M97.171,67.963l-0,-12.708m2.286,12.707l0,-12.707m2.31,12.707l0,-12.707m2.311,12.707l-0,-12.707m2.31,12.707l0,-12.707m2.285,12.707l0,-12.707" style="fill-rule:nonzero;stroke:#394d54;stroke-width:1.2px;"/></g><g id="C7" serif:id="C"><rect x="112.893" y="53.994" width="15.248" height="15.247" style="fill:#00acd3;fill-rule:nonzero;"/><rect x="112.893" y="36.392" width="15.248" height="15.248" style="fill:#20c2ef;fill-rule:nonzero;"/><path id="D14" serif:id="D" d="M114.764,55.256l0,12.708m2.287,-12.707l-0,12.707m2.309,-12.707l0,12.707m2.311,-12.707l0,12.707m2.311,-12.707l-0,12.707m2.285,-12.707l-0,12.707" style="fill-rule:nonzero;stroke:#394d54;stroke-width:1.2px;"/><path id="D15" serif:id="D" d="M114.764,37.662l0,12.709m2.287,-12.708l-0,12.708m2.309,-12.708l0,12.708m2.311,-12.708l0,12.708m2.311,-12.708l-0,12.708m2.285,-12.708l-0,12.708" style="fill-rule:nonzero;stroke:#394d54;stroke-width:1.2px;"/></g></g><path d="M170.479,57.707c1.179,-9.167 -5.682,-16.369 -9.936,-19.787c-4.904,5.669 -5.666,20.526 2.027,26.781c-4.293,3.813 -13.339,7.269 -22.602,7.269l-113.808,0c-0.9,9.669 0,56.231 0,56.231l166.963,0l-0.76,-70.343c-7.232,-4.173 -16.53,-2.842 -21.884,-0.151" style="fill:#17b5eb;fill-rule:nonzero;"/><path d="M26.16,84.345l0,43.856l166.963,0l-0,-43.856" style="fill-opacity:0.17;fill-rule:nonzero;"/><path d="M85.587,124.277c-10.418,-4.943 -16.136,-11.664 -19.318,-19l-31.645,1.381l16.157,21.543l34.806,-3.924" style="fill:#d4edf1;fill-rule:nonzero;"/><path d="M171.194,57.367l0,0.023c-16.05,20.698 -39.073,38.763 -63.789,48.258c-22.047,8.47 -41.269,8.51 -54.532,1.708c-1.428,-0.806 -2.828,-1.702 -4.232,-2.548c-9.723,-6.796 -15.198,-18.035 -14.738,-32.844l-7.743,-0l0,56.237l166.963,0l-0,-73.864l-19.236,0l-2.693,3.03Z" style="fill-opacity:0.08;fill-rule:nonzero;"/></g></g><path d="M35.104,105.911c10.899,0.596 22.53,0.703 32.677,-2.477" style="fill:none;fill-rule:nonzero;stroke:#394d54;stroke-width:2.62px;stroke-linecap:round;"/><path d="M78.611,98.163c-0.001,2.307 -1.899,4.205 -4.207,4.207c-2.307,-0.001 -4.205,-1.899 -4.207,-4.207c0.001,-2.307 1.9,-4.206 4.207,-4.207c2.308,0.001 4.206,1.9 4.207,4.207Z" style="fill:#d4edf1;fill-rule:nonzero;"/><path d="M75.495,95.353c-0.377,0.221 -0.61,0.626 -0.61,1.063c0,0.672 0.551,1.227 1.224,1.231c0.465,-0 0.869,-0.259 1.078,-0.64c0.148,0.355 0.23,0.746 0.23,1.155c-0,1.664 -1.349,3.013 -3.013,3.013c-1.665,-0 -3.013,-1.349 -3.013,-3.013c0.001,-1.652 1.36,-3.012 3.013,-3.013c0.373,-0.001 0.743,0.068 1.091,0.204l-0,0Zm-75.495,-10.114l195.682,-0c-4.261,-1.081 -13.48,-2.541 -11.96,-8.125c-7.748,8.965 -26.432,6.289 -31.146,1.869c-5.251,7.616 -35.82,4.721 -37.952,-1.212c-6.583,7.725 -26.981,7.725 -33.564,0c-2.133,5.925 -32.7,8.828 -37.953,1.212c-4.715,4.421 -23.39,7.097 -31.146,-1.869c1.521,5.584 -7.698,7.044 -11.961,8.125" style="fill:#394d54;fill-rule:nonzero;"/></svg>
