<?xml version="1.0" encoding="UTF-8" standalone="no"?><!DOCTYPE svg PUBLIC "-//W3C//DTD SVG 1.1//EN" "http://www.w3.org/Graphics/SVG/1.1/DTD/svg11.dtd">
<svg width="100%" height="100%" viewBox="0 0 267 215" version="1.1" xmlns="http://www.w3.org/2000/svg"
     xml:space="preserve"
     style="fill-rule:evenodd;clip-rule:evenodd;stroke-linejoin:round;stroke-miterlimit:2;"><path d="M169.7,59.283l8.542,0.146l23.208,-23.208l1.125,-9.834c-18.408,-16.4 -42.713,-26.387 -69.271,-26.387c-48.083,-0 -88.667,32.717 -100.679,77.033c2.533,-1.766 7.95,-0.441 7.95,-0.441l46.375,-7.625c-0,-0 2.383,-3.946 3.592,-3.75c10.959,-12.041 26.51,-18.911 42.791,-18.905c13.75,0.03 26.417,4.888 36.367,12.926l0,0.045Z" style="fill:#ea4335;fill-rule:nonzero;"/><path d="M234.042,77.125c-5.388,-19.875 -16.492,-37.425 -31.479,-50.737l-32.863,32.862c13.167,10.625 21.613,26.883 21.613,45.083l-0,5.8c15.987,0 28.975,13.017 28.975,28.975c-0,15.988 -13.017,28.975 -28.975,28.975l-57.95,0l-5.8,5.834l-0.001,34.775l5.801,5.77l57.95,0c41.314,-0.056 75.294,-34.035 75.354,-75.35c-0.029,-25.645 -12.917,-48.333 -32.625,-61.983l-0,-0.004Z" style="fill:#4285f4;fill-rule:nonzero;"/><path d="M75.354,214.5l57.917,0l-0,-46.417l-57.917,0c-4.114,0.001 -8.182,-0.883 -11.925,-2.591l-8.362,2.562l-23.209,23.209l-2.033,7.833c13.076,9.976 29.078,15.378 45.525,15.371l0.004,0.033Z" style="fill:#34a853;fill-rule:nonzero;"/><path d="M75.354,63.792c-41.315,0.057 -75.295,34.035 -75.354,75.35c0,24.471 11.721,46.229 29.858,60.012l33.6,-33.6c-10.369,-4.675 -17.069,-15.038 -17.079,-26.412c0,-15.988 13.017,-28.975 28.975,-28.975c11.75,-0 21.85,7.083 26.417,17.083l33.6,-33.6c-13.779,-18.137 -35.542,-29.858 -60.013,-29.858l-0.004,-0Z" style="fill:#fbbc05;fill-rule:nonzero;"/></svg>
