<?xml version="1.0" encoding="UTF-8" standalone="no"?><!DOCTYPE svg PUBLIC "-//W3C//DTD SVG 1.1//EN" "http://www.w3.org/Graphics/SVG/1.1/DTD/svg11.dtd">
<svg width="100%" height="100%" viewBox="0 0 130 146" version="1.1" xmlns="http://www.w3.org/2000/svg"
     xml:space="preserve"
     style="fill-rule:evenodd;clip-rule:evenodd;stroke-linejoin:round;stroke-miterlimit:2;"><path d="M11.745,110.793l-5.333,-3.084l59.458,-102.98l5.334,3.084l-59.459,102.98Z" style="fill:#e10098;fill-rule:nonzero;"/><rect x="5.198" y="99.486" width="118.918" height="6.165" style="fill:#e10098;fill-rule:nonzero;"/><path d="M67.035,137.291l-59.486,-34.343l3.085,-5.333l59.481,34.334l-3.08,5.342Zm51.672,-89.512l-59.481,-34.339l3.084,-5.333l59.481,34.343l-3.084,5.329Z" style="fill:#e10098;fill-rule:nonzero;"/><path d="M10.647,47.761l-3.084,-5.334l59.53,-34.302l3.084,5.333l-59.53,34.303Z" style="fill:#e10098;fill-rule:nonzero;"/><path d="M117.609,110.793l-59.463,-102.98l5.333,-3.084l59.459,102.98l-5.329,3.084Zm-107.695,-72.455l6.156,0l-0,68.686l-6.156,0l-0,-68.686Zm103.362,0l6.164,0l0,68.686l-6.169,0l0.005,-68.686Z" style="fill:#e10098;fill-rule:nonzero;"/><path d="M65.982,134.682l-2.694,-4.666l51.734,-29.868l2.694,4.667l-51.734,29.867Z" style="fill:#e10098;fill-rule:nonzero;"/><path d="M127.609,109.029c-3.559,6.156 -11.549,8.299 -17.711,4.751c-6.156,-3.559 -8.3,-11.549 -4.751,-17.712c3.559,-6.156 11.549,-8.299 17.711,-4.751c6.24,3.556 8.356,11.556 4.756,17.712m-103.438,-59.735c-3.559,6.156 -11.549,8.3 -17.711,4.751c-6.156,-3.559 -8.3,-11.549 -4.751,-17.711c3.559,-6.156 11.549,-8.3 17.711,-4.751c6.2,3.555 8.311,11.556 4.756,17.711m-22.427,59.735c-3.565,-6.201 -1.449,-14.107 4.755,-17.712c6.201,-3.564 14.107,-1.449 17.712,4.756c3.564,6.2 1.449,14.107 -4.756,17.711c-6.24,3.565 -14.147,1.449 -17.711,-4.755m103.437,-59.735c-3.564,-6.2 -1.449,-14.107 4.756,-17.711c6.2,-3.565 14.107,-1.449 17.711,4.755c3.565,6.201 1.449,14.107 -4.755,17.712c-6.163,3.548 -14.153,1.405 -17.712,-4.751m-40.521,96.09c-7.164,0 -12.955,-5.791 -12.955,-12.956c-0,-7.164 5.804,-12.955 12.955,-12.955c7.152,-0 12.956,5.791 12.956,12.955c-0.012,7.103 -5.853,12.944 -12.956,12.956m0,-119.477c-7.164,-0 -12.955,-5.792 -12.955,-12.956c-0,-7.165 5.804,-12.956 12.955,-12.956c7.152,-0 12.956,5.791 12.956,12.956c0,0.007 0,0.015 0,0.022c0,7.095 -5.838,12.934 -12.933,12.934c-0.008,-0 -0.015,-0 -0.023,-0" style="fill:#e10098;fill-rule:nonzero;"/></svg>
