<?xml version="1.0" encoding="UTF-8" standalone="no"?><!DOCTYPE svg PUBLIC "-//W3C//DTD SVG 1.1//EN" "http://www.w3.org/Graphics/SVG/1.1/DTD/svg11.dtd">
<svg width="100%" height="100%" viewBox="0 0 207 213" version="1.1" xmlns="http://www.w3.org/2000/svg"
     xml:space="preserve"
     style="fill-rule:evenodd;clip-rule:evenodd;stroke-linejoin:round;stroke-miterlimit:2;"><path d="M206.775,48.182c0.077,0.284 0.116,0.577 0.117,0.871l-0,45.717c-0,1.193 -0.641,2.298 -1.675,2.891l-38.371,22.092l-0,43.788c-0,1.191 -0.633,2.291 -1.667,2.891l-80.096,46.109c-0.183,0.104 -0.383,0.17 -0.583,0.241c-0.075,0.025 -0.146,0.071 -0.225,0.092c-0.56,0.147 -1.148,0.147 -1.708,-0c-0.092,-0.025 -0.175,-0.075 -0.263,-0.108c-0.183,-0.067 -0.375,-0.125 -0.55,-0.225l-80.079,-46.109c-1.034,-0.594 -1.674,-1.699 -1.675,-2.891l0,-137.15c0,-0.3 0.042,-0.592 0.117,-0.875c0.025,-0.096 0.083,-0.184 0.116,-0.28c0.063,-0.175 0.121,-0.354 0.213,-0.516c0.062,-0.109 0.154,-0.196 0.229,-0.296c0.096,-0.133 0.183,-0.271 0.296,-0.388c0.096,-0.095 0.221,-0.166 0.329,-0.25c0.121,-0.1 0.229,-0.208 0.367,-0.287l0.004,-0l40.042,-23.054c1.03,-0.593 2.302,-0.593 3.333,-0l40.042,23.054l0.008,-0c0.133,0.083 0.246,0.187 0.367,0.283c0.108,0.084 0.229,0.159 0.325,0.25c0.116,0.121 0.2,0.259 0.3,0.392c0.07,0.1 0.166,0.187 0.225,0.296c0.095,0.166 0.15,0.341 0.216,0.516c0.034,0.096 0.092,0.184 0.117,0.284c0.077,0.284 0.116,0.576 0.117,0.871l-0,85.662l33.366,-19.212l0,-43.792c0,-0.292 0.042,-0.588 0.117,-0.867c0.029,-0.1 0.083,-0.187 0.117,-0.283c0.066,-0.175 0.124,-0.354 0.216,-0.517c0.063,-0.108 0.154,-0.196 0.225,-0.296c0.1,-0.133 0.183,-0.27 0.3,-0.387c0.096,-0.096 0.217,-0.167 0.325,-0.25c0.125,-0.1 0.233,-0.208 0.367,-0.288l0.004,0l40.046,-23.054c1.03,-0.594 2.303,-0.594 3.333,0l40.042,23.054c0.141,0.084 0.25,0.188 0.375,0.284c0.104,0.083 0.225,0.158 0.321,0.25c0.116,0.121 0.2,0.258 0.3,0.391c0.075,0.1 0.166,0.188 0.225,0.296c0.096,0.163 0.15,0.342 0.216,0.517c0.038,0.096 0.092,0.183 0.117,0.283Zm-6.558,44.659l-0,-38.017l-14.013,8.067l-19.358,11.145l-0,38.017l33.375,-19.212l-0.004,-0Zm-40.042,68.77l0,-38.041l-19.042,10.875l-54.375,31.033l0,38.4l73.417,-42.267Zm-153.5,-129.45l0,129.45l73.408,42.263l0,-38.392l-38.35,-21.704l-0.012,-0.008l-0.017,-0.009c-0.129,-0.075 -0.237,-0.183 -0.358,-0.275c-0.104,-0.083 -0.225,-0.15 -0.317,-0.241l-0.008,-0.013c-0.108,-0.104 -0.183,-0.233 -0.275,-0.35c-0.083,-0.112 -0.183,-0.208 -0.25,-0.325l-0.004,-0.012c-0.075,-0.125 -0.121,-0.275 -0.175,-0.417c-0.054,-0.125 -0.125,-0.242 -0.159,-0.375l0,-0.004c-0.041,-0.158 -0.05,-0.325 -0.066,-0.488c-0.017,-0.125 -0.05,-0.25 -0.05,-0.375l-0,-89.512l-19.354,-11.15l-14.013,-8.058l0,-0.005Zm36.708,-24.975l-33.362,19.205l33.354,19.204l33.358,-19.209l-33.358,-19.2l0.008,0Zm17.35,119.85l19.355,-11.141l-0,-83.734l-14.013,8.067l-19.358,11.146l-0,83.733l14.016,-8.071Zm102.78,-97.187l-33.359,19.204l33.359,19.204l33.354,-19.208l-33.354,-19.2Zm-3.338,44.187l-19.358,-11.145l-14.013,-8.067l0,38.017l19.354,11.141l14.017,8.071l0,-38.017Zm-76.758,85.671l48.929,-27.933l24.458,-13.958l-33.333,-19.192l-38.379,22.096l-34.979,20.137l33.304,18.85Z" style="fill:#ff2d20;"/></svg>
