<?xml version="1.0" encoding="UTF-8" standalone="no"?><!DOCTYPE svg PUBLIC "-//W3C//DTD SVG 1.1//EN" "http://www.w3.org/Graphics/SVG/1.1/DTD/svg11.dtd">
<svg width="100%" height="100%" viewBox="0 0 356 185" version="1.1" xmlns="http://www.w3.org/2000/svg"
     xml:space="preserve"
     style="fill-rule:evenodd;clip-rule:evenodd;stroke-linejoin:round;stroke-miterlimit:2;"><g><path d="M0,167.921l11.736,-0l-0,-46.411l18.296,40.464c2.072,4.864 5.049,6.666 10.814,6.666c5.765,0 8.564,-1.804 10.706,-6.666l18.205,-40.464l-0,46.411l11.806,-0l0,-46.411c0,-4.504 -1.804,-6.672 -5.589,-7.843c-8.922,-2.703 -14.87,-0.36 -17.573,5.676l-17.933,40.014l-17.304,-40.014c-2.614,-6.036 -8.653,-8.379 -17.664,-5.676c-3.696,1.171 -5.498,3.337 -5.498,7.843l-0.002,46.411Zm91.315,-37.76l11.806,0l0,25.505c-0.089,1.44 0.451,4.686 6.868,4.773c3.333,0.091 25.414,0 25.592,0l-0,-30.46l11.806,0l0,41.727c0,10.273 -12.725,12.524 -18.656,12.616l-37.125,0l-0,-7.837l37.22,0c7.571,-0.812 6.67,-4.595 6.67,-5.857l0,-3.067l-24.966,0c-11.626,-0.091 -19.108,-5.227 -19.195,-11.085l0,-26.319l-0.02,0.004Zm253.241,-29.561c-7.206,-0.182 -12.798,0.541 -17.484,2.525c-1.349,0.545 -3.514,0.545 -3.692,2.254c0.721,0.717 0.808,1.891 1.44,2.885c1.081,1.803 2.975,4.233 4.686,5.494c1.895,1.444 3.788,2.884 5.767,4.146c3.515,2.162 7.48,3.424 10.903,5.587c1.984,1.263 3.965,2.885 5.949,4.238c1.01,0.721 1.622,1.895 2.884,2.343l0,-0.272c-0.63,-0.808 -0.812,-1.98 -1.44,-2.885c-0.903,-0.899 -1.804,-1.713 -2.706,-2.612c-2.612,-3.514 -5.858,-6.58 -9.373,-9.101c-2.884,-1.984 -9.19,-4.686 -10.362,-8.019l-0.177,-0.182c1.979,-0.182 4.322,-0.903 6.217,-1.444c3.066,-0.808 5.857,-0.63 9.008,-1.44c1.445,-0.364 2.885,-0.812 4.329,-1.263l0,-0.808c-1.622,-1.622 -2.793,-3.785 -4.504,-5.316c-4.596,-3.965 -9.645,-7.841 -14.873,-11.085c-2.793,-1.802 -6.399,-2.975 -9.372,-4.504c-1.085,-0.542 -2.884,-0.812 -3.515,-1.713c-1.626,-1.98 -2.524,-4.596 -3.696,-6.941c-2.612,-4.957 -5.137,-10.453 -7.389,-15.68c-1.622,-3.515 -2.616,-7.029 -4.595,-10.273c-9.283,-15.321 -19.379,-24.602 -34.879,-33.706c-3.333,-1.893 -7.298,-2.707 -11.514,-3.696l-6.758,-0.364c-1.445,-0.63 -2.885,-2.343 -4.147,-3.155c-5.137,-3.244 -18.385,-10.273 -22.172,-0.99c-2.434,5.858 3.605,11.625 5.655,14.6c1.535,2.072 3.515,4.415 4.599,6.758c0.606,1.531 0.808,3.155 1.441,4.777c1.44,3.965 2.793,8.383 4.686,12.079c1.01,1.893 2.07,3.879 3.333,5.589c0.721,0.99 1.983,1.443 2.252,3.065c-1.263,1.803 -1.349,4.504 -2.071,6.76c-3.246,10.184 -1.983,22.801 2.612,30.278c1.444,2.252 4.848,7.211 9.465,5.317c4.056,-1.622 3.151,-6.759 4.323,-11.265c0.273,-1.081 0.091,-1.802 0.63,-2.525l0,0.182l3.696,7.479c2.794,4.416 7.662,9.013 11.716,12.079c2.161,1.622 3.874,4.418 6.577,5.407l-0,-0.272l-0.178,-0c-0.541,-0.808 -1.353,-1.172 -2.075,-1.802c-1.622,-1.622 -3.423,-3.606 -4.686,-5.407c-3.783,-5.046 -7.116,-10.635 -10.091,-16.402c-1.444,-2.793 -2.707,-5.857 -3.874,-8.651c-0.546,-1.083 -0.546,-2.707 -1.444,-3.244c-1.354,1.98 -3.333,3.697 -4.329,6.128c-1.713,3.875 -1.891,8.652 -2.521,13.608c-0.363,0.091 -0.202,0 -0.363,0.182c-2.881,-0.719 -3.875,-3.696 -4.955,-6.217c-2.703,-6.399 -3.155,-16.672 -0.812,-24.063c0.63,-1.893 3.337,-7.841 2.256,-9.643c-0.545,-1.713 -2.343,-2.702 -3.337,-4.056c-1.171,-1.713 -2.43,-3.874 -3.242,-5.767c-2.161,-5.049 -3.242,-10.634 -5.587,-15.682c-1.084,-2.343 -2.975,-4.777 -4.508,-6.938c-1.713,-2.434 -3.602,-4.147 -4.955,-7.029c-0.45,-0.99 -1.081,-2.614 -0.36,-3.697c0.178,-0.721 0.542,-0.99 1.259,-1.171c1.171,-0.99 4.508,0.27 5.68,0.808c3.333,1.353 6.126,2.613 8.92,4.504c1.262,0.901 2.615,2.614 4.237,3.066l1.895,0c2.884,0.63 6.126,0.182 8.827,0.99c4.777,1.535 9.102,3.785 12.98,6.221c11.804,7.48 21.54,18.114 28.117,30.824c1.08,2.072 1.531,3.965 2.524,6.128c1.895,4.417 4.238,8.922 6.127,13.25c1.894,4.236 3.696,8.565 6.399,12.079c1.353,1.893 6.758,2.883 9.19,3.874c1.804,0.808 4.595,1.536 6.221,2.525c3.063,1.893 6.127,4.056 9.009,6.129c1.44,1.078 5.949,3.332 6.217,5.13l0.01,-0.008Zm-91.904,-78.315c-1.246,-0.011 -2.487,0.14 -3.693,0.45l0,0.182l0.178,0c0.721,1.442 1.984,2.434 2.884,3.697l2.075,4.326l0.178,-0.182c1.262,-0.9 1.894,-2.343 1.894,-4.504c-0.541,-0.63 -0.63,-1.262 -1.08,-1.893c-0.542,-0.9 -1.713,-1.353 -2.436,-2.072l-0,-0.004Z" style="fill:#00678c;"/><path d="M156.384,167.921l33.885,-0c3.965,-0 7.753,-0.808 10.815,-2.252c5.136,-2.343 7.57,-5.494 7.57,-9.641l0,-8.651c0,-3.333 -2.793,-6.49 -8.378,-8.652c-2.885,-1.08 -6.49,-1.712 -10.005,-1.712l-14.24,-0c-4.777,-0 -7.029,-1.445 -7.661,-4.596c-0.089,-0.359 -0.089,-0.721 -0.089,-1.08l-0,-5.319c-0,-0.272 -0,-0.63 0.089,-0.989c0.63,-2.434 1.892,-3.067 6.059,-3.515l34.696,0l0,-7.843l-32.985,-0c-4.777,-0 -7.3,0.272 -9.554,0.994c-6.94,2.161 -10.004,5.587 -10.004,11.622l-0,6.853c-0,5.313 5.948,9.823 16.042,10.904c1.08,0.091 2.252,0.091 3.423,0.091l12.168,-0c0.451,-0 0.899,-0 1.259,0.091c3.696,0.359 5.318,0.989 6.399,2.339c0.721,0.721 0.902,1.353 0.902,2.165l0,6.847c0,0.808 -0.541,1.895 -1.622,2.794c-1.08,0.899 -2.797,1.531 -5.049,1.622c-0.451,-0 -0.717,0.091 -1.172,0.091l-32.548,-0l-0,7.837Zm125.627,-13.606c-0,8.019 6.059,12.523 18.118,13.428c1.172,0.091 2.252,0.178 3.424,0.178l30.641,-0l0,-7.837l-30.91,-0c-6.853,-0 -9.465,-1.713 -9.465,-5.858l-0,-40.555l-11.831,-0l0,40.646l0.023,-0.002Zm-65.879,0.357l0,-27.935c0,-7.12 5.046,-11.448 14.872,-12.798c1.081,-0.09 2.162,-0.181 3.151,-0.181l22.349,-0c1.171,-0 2.165,0.091 3.336,0.181c9.823,1.35 14.778,5.676 14.778,12.798l-0,27.935c-0,5.767 -2.071,8.833 -6.94,10.908l11.533,10.451l-13.606,-0l-9.372,-8.47l-9.465,0.542l-12.617,-0c-2.311,-0.012 -4.613,-0.314 -6.849,-0.899c-7.474,-2.077 -11.17,-6.04 -11.17,-12.532Zm12.705,-0.626c0,0.36 0.202,0.717 0.273,1.172c0.63,3.242 3.692,5.046 8.378,5.046l10.637,-0l-9.732,-8.833l13.606,-0l8.56,7.752c1.626,-0.903 2.616,-2.165 2.976,-3.787c0.091,-0.36 0.091,-0.808 0.091,-1.172l-0,-26.767c-0,-0.36 -0,-0.718 -0.091,-1.081c-0.63,-3.062 -3.693,-4.773 -8.29,-4.773l-17.755,-0c-5.227,-0 -8.651,2.252 -8.651,5.854l-0.002,26.589Z" style="fill:#ce8b2c;"/></g></svg>
