<?xml version="1.0" encoding="UTF-8" standalone="no"?><!DOCTYPE svg PUBLIC "-//W3C//DTD SVG 1.1//EN" "http://www.w3.org/Graphics/SVG/1.1/DTD/svg11.dtd">
<svg width="100%" height="100%" viewBox="0 0 75 84" version="1.1" xmlns="http://www.w3.org/2000/svg"
     xml:space="preserve"
     style="fill-rule:evenodd;clip-rule:evenodd;stroke-linejoin:round;stroke-miterlimit:2;"><path d="M37.178,0c-1.131,0 -2.229,0.233 -3.202,0.784l-30.774,17.771c-1.991,1.147 -3.202,3.315 -3.202,5.62l0,35.48c0,2.303 1.211,4.467 3.202,5.618l8.037,4.631c3.905,1.926 5.345,1.895 7.122,1.895c5.781,-0 9.081,-3.508 9.081,-9.605l0,-35.003c0,-0.495 -0.429,-0.85 -0.914,-0.85l-3.855,0c-0.494,0 -0.915,0.364 -0.915,0.85l0,35.021c0,2.702 -2.815,5.421 -7.383,3.136l-8.354,-4.9c-0.295,-0.161 -0.523,-0.454 -0.523,-0.783l-0,-35.48c-0,-0.336 0.225,-0.68 0.523,-0.849l30.709,-17.708c0.288,-0.166 0.63,-0.166 0.915,-0l30.709,17.708c0.293,0.175 0.523,0.502 0.523,0.849l0,35.48c0,0.338 -0.17,0.685 -0.457,0.849l-30.774,17.708c-0.273,0.157 -0.636,0.157 -0.915,-0l-7.906,-4.704c-0.236,-0.138 -0.556,-0.127 -0.784,-0c-2.182,1.237 -2.592,1.38 -4.638,2.09c-0.504,0.175 -1.271,0.449 0.261,1.308l10.324,6.084c0.982,0.569 2.078,0.849 3.202,0.849c1.139,0 2.218,-0.272 3.202,-0.849l30.774,-17.708c1.991,-1.159 3.202,-3.315 3.202,-5.618l-0,-35.48c-0,-2.305 -1.211,-4.468 -3.202,-5.62l-30.774,-17.771c-0.965,-0.551 -2.071,-0.784 -3.202,-0.784l-0.012,-0.019Zm8.233,25.353c-8.763,-0 -13.982,3.729 -13.982,9.931c-0,6.72 5.18,8.576 13.59,9.408c10.062,0.985 10.847,2.462 10.847,4.443c-0,3.435 -2.739,4.9 -9.213,4.9c-8.133,0 -9.921,-2.03 -10.519,-6.084c-0.071,-0.434 -0.405,-0.784 -0.849,-0.784l-3.996,0c-0.498,0.011 -0.904,0.417 -0.915,0.915c0,5.179 2.817,11.303 16.27,11.303c9.738,-0 15.354,-3.814 15.354,-10.52c0,-6.629 -4.537,-8.421 -13.982,-9.671c-9.535,-1.271 -10.454,-1.88 -10.454,-4.116c0,-1.846 0.772,-4.314 7.841,-4.314c6.314,-0 8.648,1.362 9.605,5.619c0.083,0.4 0.436,0.727 0.849,0.727l3.996,-0c0.245,-0 0.483,-0.151 0.653,-0.327c0.167,-0.188 0.285,-0.4 0.262,-0.654c-0.618,-7.332 -5.507,-10.781 -15.354,-10.781l-0.003,0.005Z" style="fill:#83cd29;fill-rule:nonzero;"/></svg>
