<?xml version="1.0" encoding="UTF-8" standalone="no"?><!DOCTYPE svg PUBLIC "-//W3C//DTD SVG 1.1//EN" "http://www.w3.org/Graphics/SVG/1.1/DTD/svg11.dtd">
<svg width="100%" height="100%" viewBox="0 0 380 198" version="1.1" xmlns="http://www.w3.org/2000/svg"
     xml:space="preserve"
     style="fill-rule:evenodd;clip-rule:evenodd;stroke-linejoin:round;stroke-miterlimit:2;"><g><clipPath id="_clip1"><path d="M0,98.555c0,54.43 85.043,98.555 189.945,98.555c104.902,-0 189.945,-44.125 189.945,-98.555c0,-54.43 -85.043,-98.555 -189.945,-98.555c-104.902,-0 -189.945,44.126 -189.945,98.555"/></clipPath><g clip-path="url(#_clip1)"><path d="M0,98.555c0,54.43 85.043,98.555 189.945,98.555c104.902,-0 189.945,-44.125 189.945,-98.555c0,-54.43 -85.043,-98.555 -189.945,-98.555c-104.902,-0 -189.945,44.126 -189.945,98.555" style="fill:url(#_Radial2);fill-rule:nonzero;"/></g></g><g><path d="M189.945,189.792c100.806,-0 182.526,-40.848 182.526,-91.237c-0,-50.389 -81.72,-91.237 -182.526,-91.237c-100.805,0 -182.525,40.848 -182.525,91.237c-0,50.389 81.72,91.237 182.525,91.237" style="fill:#777bb3;fill-rule:nonzero;"/></g><g><path d="M103.199,109.867c8.289,-0 14.477,-1.508 18.391,-4.479c3.874,-2.941 6.549,-8.039 7.951,-15.148c1.307,-6.644 0.809,-11.284 -1.48,-13.788c-2.34,-2.557 -7.401,-3.854 -15.041,-3.854l-13.245,-0l-7.344,37.269l10.767,0l0.001,-0Zm-43.326,45.909c-0.615,0 -1.199,-0.271 -1.59,-0.74c-0.391,-0.468 -0.55,-1.085 -0.432,-1.68l19.461,-98.765c0.188,-0.952 1.041,-1.645 2.024,-1.645l41.944,0c13.183,0 22.995,3.524 29.162,10.495c6.2,7 8.115,16.786 5.691,29.084c-0.987,5.01 -2.684,9.663 -5.043,13.83c-2.363,4.171 -5.485,8.03 -9.282,11.473c-4.545,4.195 -9.689,7.238 -15.276,9.028c-5.498,1.767 -12.559,2.663 -20.987,2.663l-16.984,0l-4.851,24.613c-0.187,0.952 -1.039,1.645 -2.022,1.646l-21.815,-0l0,-0.002Z" style="fill-rule:nonzero;"/><path d="M101.474,74.63l11.548,-0c9.22,-0 12.423,1.995 13.511,3.185c1.806,1.974 2.147,6.138 0.986,12.039c-1.304,6.607 -3.721,11.292 -7.185,13.922c-3.546,2.693 -9.311,4.058 -17.134,4.058l-8.269,-0l6.543,-33.204Zm19.807,-23.717l-41.945,-0c-1.965,-0 -3.671,1.387 -4.046,3.29l-19.461,98.766c-0.051,0.255 -0.076,0.515 -0.076,0.775c0,2.23 1.86,4.066 4.122,4.066l21.812,-0c1.966,0 3.672,-1.387 4.047,-3.29l4.526,-22.968l15.286,-0c8.644,-0 15.921,-0.93 21.627,-2.763c5.867,-1.88 11.267,-5.069 16.044,-9.476c3.952,-3.586 7.214,-7.611 9.674,-11.965c2.459,-4.354 4.238,-9.212 5.268,-14.435c2.552,-12.945 0.478,-23.312 -6.163,-30.809c-6.576,-7.426 -16.91,-11.191 -30.714,-11.191m-31.35,60.987l13.268,0c8.794,0 15.345,-1.633 19.649,-4.902c4.303,-3.269 7.208,-8.724 8.717,-16.369c1.442,-7.34 0.786,-12.52 -1.972,-15.538c-2.758,-3.019 -8.285,-4.527 -16.571,-4.527l-14.945,-0l-8.145,41.336m31.35,-56.922c12.618,0 21.824,3.267 27.61,9.799c5.786,6.532 7.527,15.652 5.219,27.359c-0.95,4.823 -2.557,9.233 -4.819,13.228c-2.263,3.995 -5.223,7.652 -8.878,10.967c-4.356,4.02 -9.194,6.884 -14.519,8.592c-5.324,1.711 -12.105,2.563 -20.349,2.563l-18.684,-0l-5.173,26.258l-21.813,0l19.459,-98.766l41.946,0" style="fill:#fff;fill-rule:nonzero;"/><path d="M206.147,129.518c-0.616,0 -1.199,-0.271 -1.59,-0.74c-0.391,-0.469 -0.551,-1.084 -0.433,-1.68l8.609,-43.701c0.819,-4.156 0.617,-7.139 -0.568,-8.399c-0.726,-0.771 -2.905,-2.063 -9.349,-2.063l-15.596,0l-10.824,54.937c-0.187,0.952 -1.04,1.645 -2.023,1.645l-21.641,0c-1.131,0 -2.061,-0.917 -2.061,-2.032c-0,-0.131 0.012,-0.26 0.038,-0.388l19.461,-98.765c0.188,-0.952 1.041,-1.645 2.024,-1.645l21.64,0c1.131,0 2.061,0.918 2.061,2.033c0,0.13 -0.012,0.26 -0.037,0.388l-4.697,23.838l16.778,-0c12.782,-0 21.449,2.222 26.499,6.795c5.152,4.665 6.751,12.123 4.772,22.172l-9.055,45.96c-0.187,0.952 -1.04,1.646 -2.023,1.646l-21.984,-0l-0.001,-0.001Z" style="fill-rule:nonzero;"/><path d="M193.834,24.654l-21.641,0c-1.966,0 -3.672,1.387 -4.047,3.29l-19.461,98.765c-0.051,0.256 -0.076,0.515 -0.076,0.776c-0,2.23 1.861,4.065 4.122,4.065l21.641,0c1.966,0 3.671,-1.386 4.047,-3.29l10.499,-53.292l13.898,-0c6.433,-0 7.783,1.355 7.837,1.413c0.39,0.414 0.904,2.332 0.056,6.628l-8.608,43.7c-0.05,0.256 -0.075,0.515 -0.075,0.776c-0,2.23 1.86,4.065 4.122,4.065l21.984,0c1.966,0 3.672,-1.386 4.047,-3.29l9.054,-45.96c2.125,-10.788 0.308,-18.882 -5.399,-24.056c-5.447,-4.933 -14.571,-7.332 -27.893,-7.332l-14.279,-0l4.22,-21.417c0.051,-0.255 0.076,-0.515 0.076,-0.776c0,-2.23 -1.861,-4.065 -4.122,-4.065c-0,-0 -0,-0 -0,-0m-0,4.065l-5.173,26.259l19.279,-0c12.13,-0 20.497,2.088 25.103,6.26c4.606,4.171 5.984,10.937 4.144,20.287l-9.055,45.96l-21.984,-0l8.608,-43.7c0.98,-4.971 0.62,-8.362 -1.081,-10.17c-1.701,-1.808 -5.322,-2.713 -10.859,-2.713l-17.297,0l-11.148,56.583l-21.641,-0l19.462,-98.766l21.641,0" style="fill:#fff;fill-rule:nonzero;"/><path d="M273.452,109.867c8.288,-0 14.476,-1.508 18.391,-4.479c3.873,-2.941 6.549,-8.037 7.951,-15.148c1.308,-6.644 0.81,-11.284 -1.48,-13.788c-2.341,-2.557 -7.401,-3.854 -15.041,-3.854l-13.245,-0l-7.345,37.269l10.768,0l0.001,-0Zm-43.325,45.909c-0.615,0 -1.199,-0.271 -1.59,-0.74c-0.391,-0.468 -0.55,-1.085 -0.433,-1.68l19.462,-98.765c0.187,-0.952 1.041,-1.645 2.024,-1.645l41.944,0c13.184,0 22.994,3.524 29.162,10.495c6.2,7 8.114,16.785 5.691,29.084c-0.988,5.01 -2.685,9.663 -5.044,13.83c-2.364,4.171 -5.486,8.03 -9.282,11.473c-4.545,4.195 -9.69,7.238 -15.276,9.028c-5.499,1.767 -12.559,2.663 -20.987,2.663l-16.987,0l-4.848,24.613c-0.187,0.952 -1.041,1.646 -2.024,1.646l-21.812,-0l0,-0.002Z" style="fill-rule:nonzero;"/><path d="M271.727,74.63l11.547,-0c9.22,-0 12.424,1.995 13.512,3.185c1.807,1.974 2.147,6.138 0.986,12.039c-1.304,6.606 -3.722,11.292 -7.185,13.922c-3.546,2.693 -9.312,4.058 -17.134,4.058l-8.267,-0l6.542,-33.204l-0.001,-0Zm19.807,-23.717l-41.945,-0c-1.966,-0 -3.671,1.387 -4.046,3.29l-19.461,98.766c-0.05,0.255 -0.076,0.515 -0.076,0.775c0,2.23 1.861,4.066 4.122,4.066l21.813,-0c1.965,0 3.671,-1.387 4.046,-3.29l4.525,-22.968l15.286,-0c8.644,-0 15.921,-0.93 21.628,-2.763c5.867,-1.88 11.267,-5.069 16.045,-9.477c3.952,-3.585 7.206,-7.61 9.672,-11.964c2.467,-4.354 4.239,-9.212 5.268,-14.435c2.552,-12.946 0.479,-23.313 -6.162,-30.81c-6.576,-7.425 -16.91,-11.19 -30.714,-11.19m-31.35,60.987l13.268,0c8.794,0 15.345,-1.633 19.649,-4.902c4.303,-3.269 7.208,-8.724 8.716,-16.369c1.444,-7.34 0.787,-12.52 -1.971,-15.538c-2.759,-3.019 -8.286,-4.527 -16.571,-4.527l-14.945,-0l-8.145,41.336m31.35,-56.922c12.618,0 21.823,3.267 27.609,9.799c5.786,6.532 7.528,15.652 5.22,27.359c-0.95,4.823 -2.557,9.233 -4.82,13.228c-2.262,3.995 -5.222,7.652 -8.877,10.967c-4.356,4.02 -9.195,6.884 -14.519,8.592c-5.324,1.711 -12.105,2.563 -20.349,2.563l-18.684,-0l-5.173,26.258l-21.813,0l19.462,-98.765l41.945,0" style="fill:#fff;fill-rule:nonzero;"/></g><defs><radialGradient id="_Radial2" cx="0" cy="0" r="1" gradientUnits="userSpaceOnUse" gradientTransform="matrix(249.425,0,0,246.02,114.044,34.6493)"><stop offset="0" style="stop-color:#aeb2d5;stop-opacity:1"/><stop offset="0.3" style="stop-color:#aeb2d5;stop-opacity:1"/><stop offset="0.75" style="stop-color:#484c89;stop-opacity:1"/><stop offset="1" style="stop-color:#484c89;stop-opacity:1"/></radialGradient></defs></svg>
