<?xml version="1.0" encoding="UTF-8" standalone="no"?><!DOCTYPE svg PUBLIC "-//W3C//DTD SVG 1.1//EN" "http://www.w3.org/Graphics/SVG/1.1/DTD/svg11.dtd">
<svg width="100%" height="100%" viewBox="0 0 10417 10417" version="1.1" xmlns="http://www.w3.org/2000/svg"
     xml:space="preserve"
     style="fill-rule:evenodd;clip-rule:evenodd;stroke-linejoin:round;stroke-miterlimit:2;"><path d="M5892.86,2261.91l-491.071,-1488.1l-3630.95,-773.81l-1770.83,2008.93l5535.71,2827.38l357.143,-2574.41Z" style="fill:url(#_Linear1);fill-rule:nonzero;"/><path d="M4166.67,6160.71l-104.167,-3095.24l-4062.5,-1056.55l997.024,5967.26l3169.64,-29.761l-0,-1785.72Z" style="fill:url(#_Linear2);fill-rule:nonzero;"/><path d="M3288.69,6101.19l193.453,-2455.36l2946.43,-3020.83l2633.93,476.19l1354.17,3377.98l-1413.69,1398.81l-2306.55,-372.024l-1428.57,1502.98l-1979.17,-907.739Z" style="fill:url(#_Linear3);fill-rule:nonzero;"/><path d="M6428.57,625l-4226.19,3750l818.452,4821.43l3511.91,1220.24l3883.93,-2321.43l-3988.1,-7470.24Z" style="fill:url(#_Linear4);fill-rule:nonzero;"/><rect x="1994.05" y="1994.05" width="6428.57" height="6428.57" style="fill-rule:nonzero;"/><path d="M2604.17,7217.26l2410.71,-0l-0,401.786l-2410.71,-0l-0,-401.786Zm-29.762,-4389.88l1086.31,-0c639.881,-0 1026.79,372.024 1026.79,922.619l0,14.881c0,625 -476.19,937.5 -1086.31,937.5l-446.428,-0l-0,803.571l-580.357,0l-0,-2678.57Zm1056.55,1339.29c297.619,-0 461.31,-178.572 461.31,-401.786l-0,-14.881c-0,-267.857 -178.572,-401.786 -476.191,-401.786l-446.428,0l-0,818.453l461.309,-0Zm1205.36,952.381l342.261,-416.667c238.096,193.452 491.072,327.381 803.572,327.381c238.095,-0 386.905,-89.286 386.905,-252.976l-0,-14.881c-0,-148.81 -89.286,-223.215 -535.715,-342.262c-535.714,-133.929 -892.857,-282.738 -892.857,-818.453l0,-14.88c0,-491.072 386.905,-803.572 937.5,-803.572c386.905,0 729.167,119.048 997.024,342.262l-312.5,446.429c-238.095,-163.691 -476.19,-267.858 -699.405,-267.858c-223.214,0 -342.262,104.167 -342.262,238.096l0,14.881c0,178.571 119.048,238.095 580.357,357.142c535.715,148.81 848.215,342.262 848.215,803.572l-0,14.881c-0,535.714 -401.786,833.333 -982.143,833.333c-401.786,-14.881 -803.572,-163.69 -1130.95,-446.428" style="fill:#fff;fill-rule:nonzero;"/><defs><linearGradient id="_Linear1" x1="0" y1="0" x2="1" y2="0" gradientUnits="userSpaceOnUse" gradientTransform="matrix(4373.51,-5776.79,5776.79,4373.51,81.994,6970.24)"><stop offset="0" style="stop-color:#765af8;stop-opacity:1"/><stop offset="0.02" style="stop-color:#765af8;stop-opacity:1"/><stop offset="0.38" style="stop-color:#b345f1;stop-opacity:1"/><stop offset="0.76" style="stop-color:#fa3293;stop-opacity:1"/><stop offset="0.94" style="stop-color:#ff318c;stop-opacity:1"/><stop offset="1" style="stop-color:#ff318c;stop-opacity:1"/></linearGradient><linearGradient id="_Linear2" x1="0" y1="0" x2="1" y2="0" gradientUnits="userSpaceOnUse" gradientTransform="matrix(4366.52,-5767.41,5767.41,4366.52,403.125,7196.88)"><stop offset="0" style="stop-color:#765af8;stop-opacity:1"/><stop offset="0.02" style="stop-color:#765af8;stop-opacity:1"/><stop offset="0.38" style="stop-color:#b345f1;stop-opacity:1"/><stop offset="0.76" style="stop-color:#fa3293;stop-opacity:1"/><stop offset="0.94" style="stop-color:#ff318c;stop-opacity:1"/><stop offset="1" style="stop-color:#ff318c;stop-opacity:1"/></linearGradient><linearGradient id="_Linear3" x1="0" y1="0" x2="1" y2="0" gradientUnits="userSpaceOnUse" gradientTransform="matrix(-2467.71,-5856.7,5856.7,-2467.71,7567.86,6905.51)"><stop offset="0" style="stop-color:#765af8;stop-opacity:1"/><stop offset="0.18" style="stop-color:#765af8;stop-opacity:1"/><stop offset="0.24" style="stop-color:#8655f6;stop-opacity:1"/><stop offset="0.35" style="stop-color:#9f4cf3;stop-opacity:1"/><stop offset="0.44" style="stop-color:#ae47f2;stop-opacity:1"/><stop offset="0.52" style="stop-color:#b345f1;stop-opacity:1"/><stop offset="1" style="stop-color:#b345f1;stop-opacity:1"/></linearGradient><linearGradient id="_Linear4" x1="0" y1="0" x2="1" y2="0" gradientUnits="userSpaceOnUse" gradientTransform="matrix(-5739.29,-4437.95,4437.95,-5739.29,9412.35,8535.42)"><stop offset="0" style="stop-color:#765af8;stop-opacity:1"/><stop offset="0.02" style="stop-color:#765af8;stop-opacity:1"/><stop offset="0.38" style="stop-color:#b345f1;stop-opacity:1"/><stop offset="1" style="stop-color:#b345f1;stop-opacity:1"/></linearGradient></defs></svg>
