<?xml version="1.0" encoding="UTF-8" standalone="no"?><!DOCTYPE svg PUBLIC "-//W3C//DTD SVG 1.1//EN" "http://www.w3.org/Graphics/SVG/1.1/DTD/svg11.dtd">
<svg width="100%" height="100%" viewBox="0 0 159 163" version="1.1" xmlns="http://www.w3.org/2000/svg"
     xml:space="preserve"
     style="fill-rule:evenodd;clip-rule:evenodd;"><path d="M110.404,110.742c0.821,-6.833 0.575,-7.833 5.667,-6.725l1.25,0.112c3.916,0.18 9.029,-0.625 12.041,-2.025c6.471,-3 10.309,-8.016 3.929,-6.7c-14.558,3 -15.558,-1.925 -15.558,-1.925c15.375,-22.808 21.792,-51.762 16.25,-58.845c-15.125,-19.334 -41.317,-10.188 -41.75,-9.95l-0.137,0.025c-2.875,-0.596 -6.096,-0.959 -9.709,-1.013c-6.583,-0.108 -11.583,1.725 -15.416,4.604c-0,0 -46.717,-19.25 -44.584,24.209c0.459,9.241 13.25,69.941 28.5,51.608c5.575,-6.708 10.959,-12.375 10.959,-12.375c2.675,1.779 5.833,2.683 9.237,2.358l0.258,-0.221c-0.078,0.871 -0.043,1.747 0.105,2.609c-3.93,4.387 -2.775,5.166 -10.625,6.779c-7.946,1.637 -3.28,4.554 -0.23,5.317c3.696,0.925 12.25,2.233 18.021,-5.855l-0.229,0.925c1.542,1.234 1.438,8.863 1.654,14.313c0.217,5.45 0.584,10.542 1.696,13.542c1.113,3 2.417,10.725 12.75,8.512c8.625,-1.85 15.225,-4.508 15.825,-29.262" style="fill:#231f20;fill-rule:nonzero;stroke:#231f20;stroke-width:10.83px;"/><path d="M133.325,95.404c-14.559,3 -15.559,-1.925 -15.559,-1.925c15.375,-22.808 21.792,-51.762 16.25,-58.85c-15.125,-19.333 -41.316,-10.187 -41.75,-9.95l-0.141,0.025c-2.875,-0.595 -6.096,-0.958 -9.709,-1.012c-6.583,-0.108 -11.583,1.725 -15.416,4.604c-0,0 -46.717,-19.25 -44.584,24.208c0.459,9.25 13.25,69.942 28.5,51.609c5.575,-6.709 10.959,-12.375 10.959,-12.375c2.675,1.779 5.875,2.683 9.233,2.358l0.263,-0.221c-0.084,0.834 -0.042,1.646 0.104,2.609c-3.929,4.387 -2.775,5.166 -10.625,6.779c-7.946,1.637 -3.279,4.554 -0.229,5.316c3.695,0.925 12.25,2.234 18.02,-5.854l-0.229,0.925c1.542,1.234 2.625,8.021 2.438,14.167c-0.188,6.146 -0.3,10.375 0.916,13.675c1.217,3.3 2.417,10.725 12.75,8.512c8.625,-1.85 13.1,-6.641 13.721,-14.633c0.442,-5.683 1.442,-4.842 1.5,-9.917l0.8,-2.404c0.925,-7.708 0.146,-10.187 5.459,-9.029l1.25,0.113c3.916,0.179 9.033,-0.625 12.041,-2.025c6.471,-3 10.309,-8.017 3.929,-6.7l0.109,-0.005Z" style="fill:#417ba2;fill-rule:nonzero;"/><g><g><path d="M79.341,99.821c-0.4,14.333 0.1,28.763 1.5,32.271c1.4,3.508 4.405,10.333 14.734,8.117c8.625,-1.85 11.766,-5.43 13.125,-13.334l3.187,-25.262m-44.879,-73.638c0,0 -46.75,-19.108 -44.583,24.342c0.416,9.25 13.25,69.946 28.5,51.612c5.575,-6.666 10.612,-11.958 10.612,-11.958m30.679,-67.483c-1.666,0.508 26,-10.096 41.7,10c5.542,7.083 -0.833,36.041 -16.25,58.85" style="fill:none;fill-rule:nonzero;stroke:#fff;stroke-width:3.61px;stroke-linecap:round;stroke-linejoin:round;"/><path d="M117.662,93.3c0,0 1,4.929 15.563,1.925c6.375,-1.316 2.5,3.696 -3.929,6.7c-5.309,2.459 -17.209,3.096 -17.409,-0.308c-0.5,-8.792 6.267,-6.117 5.775,-8.317c-0.441,-1.983 -3.466,-3.929 -5.466,-8.779c-1.75,-4.237 -23.959,-36.717 6.166,-31.892c1.104,-0.229 -7.858,-28.654 -36.05,-29.116c-28.191,-0.463 -27.258,34.666 -27.258,34.666" style="fill:none;fill-rule:nonzero;stroke:#fff;stroke-width:3.61px;stroke-linecap:round;stroke-linejoin:bevel;"/></g><g><path d="M71.45,96.3c-3.929,4.388 -2.775,5.167 -10.625,6.779c-7.946,1.638 -3.279,4.555 -0.229,5.317c3.695,0.925 12.25,2.233 18.02,-5.854c1.759,-2.458 -0.008,-6.392 -2.425,-7.396c-1.166,-0.483 -2.729,-1.083 -4.733,1.154l-0.008,0Z" style="fill:none;fill-rule:nonzero;stroke:#fff;stroke-width:3.61px;stroke-linejoin:round;"/><path d="M71.191,96.225c-0.395,-2.583 0.85,-5.65 2.18,-9.25c2,-5.391 6.666,-10.783 2.929,-27.883c-2.75,-12.742 -21.242,-2.654 -21.25,-0.925c-0.009,1.729 0.833,8.758 -0.309,16.946c-1.5,10.683 6.792,19.721 16.346,18.791" style="fill:none;fill-rule:nonzero;stroke:#fff;stroke-width:3.61px;stroke-linecap:round;stroke-linejoin:round;"/></g></g><g><path d="M66.791,57.913c-0.083,0.591 1.084,2.166 2.596,2.375c1.513,0.208 2.813,-1.021 2.892,-1.609c0.079,-0.587 -1.083,-1.241 -2.6,-1.458c-1.517,-0.217 -2.813,0.096 -2.892,0.688l0.004,0.004Z" style="fill:#fff;fill-rule:nonzero;stroke:#fff;stroke-width:1.2px;"/><path d="M112.933,56.709c0.083,0.591 -1.083,2.166 -2.596,2.375c-1.512,0.208 -2.812,-1.021 -2.896,-1.609c-0.083,-0.587 1.084,-1.241 2.6,-1.45c1.517,-0.208 2.813,0.096 2.896,0.688l-0.004,-0.004Z" style="fill:#fff;fill-rule:nonzero;stroke:#fff;stroke-width:0.6px;"/></g><path d="M118.354,52.625c0.25,4.625 -1,7.784 -1.154,12.709c-0.234,7.166 3.416,15.362 -2.084,23.57" style="fill:none;fill-rule:nonzero;stroke:#fff;stroke-width:3.61px;stroke-linecap:round;stroke-linejoin:round;"/></svg>
