<?xml version="1.0" encoding="UTF-8" standalone="no"?><!DOCTYPE svg PUBLIC "-//W3C//DTD SVG 1.1//EN" "http://www.w3.org/Graphics/SVG/1.1/DTD/svg11.dtd">
<svg width="100%" height="100%" viewBox="0 0 146 146" version="1.1" xmlns="http://www.w3.org/2000/svg"
     xml:space="preserve"
     style="fill-rule:evenodd;clip-rule:evenodd;stroke-linejoin:round;stroke-miterlimit:2;"><circle cx="72.514" cy="72.514" r="72.514" style="fill:#1a171b;"/><path d="M104.215,26.83c-7.371,0.257 -13.797,4.314 -18.58,9.938c-5.296,6.159 -8.824,13.459 -11.368,20.911c-4.543,-3.723 -8.048,-8.544 -15.288,-10.647c-5.828,-1.794 -12.18,-0.633 -16.997,3.107c-2.577,1.928 -4.357,4.838 -5.198,7.573c-2.184,7.115 2.293,13.443 4.335,15.714l4.456,4.772c0.917,0.928 3.128,3.385 2.047,6.88c-1.168,3.805 -5.76,6.279 -10.467,4.821c-2.102,-0.639 -5.121,-2.206 -4.444,-4.412c0.273,-0.901 0.928,-1.583 1.272,-2.358c0.317,-0.672 0.47,-1.174 0.568,-1.475c0.863,-2.806 -0.317,-6.459 -3.32,-7.387c-2.806,-0.863 -5.678,-0.18 -6.792,3.44c-1.256,4.106 0.699,11.553 11.22,14.742c12.329,3.789 22.752,-2.927 24.232,-11.685c0.928,-5.481 -1.545,-9.555 -6.077,-14.742l-3.697,-4.084c-2.184,-2.184 -3.003,-6.049 -0.688,-8.976c1.955,-2.473 4.74,-3.527 9.299,-2.293c6.661,1.802 9.62,6.426 14.578,10.155c-2.042,6.705 -3.385,13.432 -4.586,19.471l-0.737,4.499c-3.539,18.564 -6.241,28.758 -13.268,34.605c-1.42,1.005 -3.44,2.512 -6.487,2.621c-1.6,0.055 -2.113,-1.048 -2.129,-1.529c-0.038,-1.119 0.906,-1.638 1.529,-2.14c0.939,-0.513 2.358,-1.365 2.26,-4.079c-0.109,-3.21 -2.763,-6.006 -6.607,-5.869c-2.882,0.098 -7.272,2.812 -7.108,7.775c0.174,5.132 4.952,8.971 12.159,8.725c3.849,-0.131 12.449,-1.693 20.928,-11.777c9.866,-11.554 12.624,-24.789 14.704,-34.486l2.315,-12.798l4.161,0.295c12.285,0.257 18.432,-6.104 18.525,-10.734c0.055,-2.801 -1.84,-5.559 -4.499,-5.499c-1.911,0.055 -4.297,1.322 -4.87,3.953c-0.562,2.583 3.909,4.914 0.415,7.175c-2.484,1.605 -6.934,2.741 -13.202,1.818l1.146,-6.301c2.326,-11.946 5.187,-26.645 16.08,-26.994c0.792,-0.038 3.696,0.038 3.767,1.955c0.022,0.639 -0.136,0.802 -0.89,2.271c-0.764,1.092 -1.053,2.119 -1.015,3.238c0.109,3.057 2.424,5.056 5.776,4.936c4.494,-0.148 5.788,-4.516 5.712,-6.771c-0.181,-5.274 -5.744,-8.61 -13.104,-8.364l-0.066,0.01Z" style="fill:#fff;fill-rule:nonzero;"/></svg>
