<?xml version="1.0" encoding="UTF-8" standalone="no"?><!DOCTYPE svg PUBLIC "-//W3C//DTD SVG 1.1//EN" "http://www.w3.org/Graphics/SVG/1.1/DTD/svg11.dtd">
<svg width="100%" height="100%" viewBox="0 0 267 267" version="1.1" xmlns="http://www.w3.org/2000/svg"
     xml:space="preserve"
     style="fill-rule:evenodd;clip-rule:evenodd;stroke-linejoin:round;stroke-miterlimit:2;"><path d="M0,-0.008l0,266.675l266.675,-0l0,-266.675l-266.675,-0Zm214.904,122.716c6.771,1.692 11.938,4.7 16.679,9.609c2.459,2.625 6.096,7.408 6.392,8.55c0.083,0.333 -11.512,8.125 -18.542,12.487c-0.25,0.167 -1.27,-0.929 -2.416,-2.625c-3.429,-5 -7.025,-7.154 -12.529,-7.533c-8.084,-0.55 -13.334,3.683 -13.25,10.75c-0,2.075 0.291,3.3 1.141,5c1.779,3.683 5.084,5.883 15.45,10.375c19.092,8.208 27.259,13.625 32.334,21.333c5.666,8.592 6.941,22.308 3.091,32.508c-4.233,11.092 -14.729,18.625 -29.5,21.125c-4.571,0.805 -15.408,0.68 -20.316,-0.208c-10.709,-1.904 -20.867,-7.196 -27.134,-14.137c-2.458,-2.709 -7.237,-9.78 -6.941,-10.292c0.125,-0.167 1.229,-0.846 2.458,-1.567l9.904,-5.708l7.667,-4.446l1.608,2.375c2.242,3.429 7.154,8.125 10.117,9.692c8.508,4.487 20.191,3.85 25.946,-1.313c2.458,-2.241 3.47,-4.571 3.47,-8c0,-3.091 -0.375,-4.446 -1.987,-6.771c-2.075,-2.958 -6.308,-5.458 -18.333,-10.666c-13.759,-5.925 -19.684,-9.609 -25.1,-15.45c-3.134,-3.388 -6.096,-8.804 -7.325,-13.334c-1.017,-3.766 -1.271,-13.208 -0.467,-17.016c2.833,-13.334 12.867,-22.563 27.346,-25.313c4.7,-0.887 15.625,-0.55 20.233,0.592l0.004,-0.017Zm-62.604,11.125l0.083,10.917l-34.708,-0l0,98.625l-24.55,-0l0,-98.625l-34.708,-0l-0,-10.708l0.291,-11c0.125,-0.167 21.25,-0.25 46.859,-0.209l46.604,0.125l0.129,10.875Z" style="fill:#007acc;fill-rule:nonzero;"/></svg>
